<?xml version="1.0" encoding="utf-8"?>
<!-- Generator: Adobe Illustrator 16.0.0, SVG Export Plug-In . SVG Version: 6.00 Build 0)  -->
<!DOCTYPE svg PUBLIC "-//W3C//DTD SVG 1.1//EN" "http://www.w3.org/Graphics/SVG/1.1/DTD/svg11.dtd">
<svg version="1.1" id="图层_1" xmlns="http://www.w3.org/2000/svg" xmlns:xlink="http://www.w3.org/1999/xlink" x="0px" y="0px"
	 width="132px" height="40px" viewBox="0 0 132 40" enable-background="new 0 0 132 40" xml:space="preserve">
<g>
	<g enable-background="new    ">
		<path fill="#333333" d="M49.465,35.086c1.039-0.055,2.064-0.164,3.076-0.328c-0.547-1.012-1.094-1.928-1.641-2.748
			c-0.137-0.219-0.13-0.383,0.021-0.492c0.15-0.109,0.308-0.082,0.472,0.082c0.847,1.313,1.626,2.721,2.338,4.225
			c0.082,0.191,0.055,0.336-0.082,0.432c-0.137,0.096-0.26,0.074-0.369-0.063c-0.219-0.355-0.383-0.643-0.492-0.861
			c-2.625,0.301-5.059,0.465-7.301,0.492c-0.273-0.027-0.451-0.129-0.533-0.307s-0.014-0.391,0.205-0.637
			c0.519-0.684,1.087-1.436,1.702-2.256s1.087-1.518,1.415-2.092h-3.363c-0.164,0-0.246-0.088-0.246-0.266s0.082-0.281,0.246-0.309
			h8.695c0.164,0.027,0.246,0.131,0.246,0.309s-0.082,0.266-0.246,0.266h-5.045c0.191,0.109,0.205,0.314,0.041,0.615
			c-0.547,0.875-1.463,2.133-2.748,3.773c-0.137,0.164-0.109,0.26,0.082,0.287C47.25,35.182,48.425,35.141,49.465,35.086z
			 M45.527,27.129c0-0.164,0.082-0.26,0.246-0.287h7.014c0.191,0.027,0.287,0.123,0.287,0.287s-0.096,0.246-0.287,0.246h-7.014
			C45.609,27.375,45.527,27.293,45.527,27.129z"/>
		<path fill="#333333" d="M58.682,27.129c-0.191,0.055-0.301,0.178-0.328,0.369v3.158c0,0.93-0.027,1.805-0.082,2.625
			c-0.055,0.82-0.246,1.641-0.574,2.461c-0.109,0.191-0.232,0.246-0.369,0.164c-0.137-0.082-0.164-0.219-0.082-0.41
			c0.219-0.492,0.369-1.113,0.451-1.865s0.123-1.717,0.123-2.893v-3.363c0.027-0.492,0.246-0.752,0.656-0.779h7.752
			c0.164,0.027,0.246,0.123,0.246,0.287s-0.082,0.246-0.246,0.246h-3.404H58.682z M58.887,35.701
			c-0.219,0.109-0.369,0.09-0.451-0.061s-0.055-0.295,0.082-0.432c0.683-0.52,1.313-1.148,1.887-1.887
			c0.191-0.164,0.355-0.184,0.492-0.061c0.137,0.123,0.137,0.293,0,0.512C60.322,34.43,59.652,35.072,58.887,35.701z M62.537,27.252
			c0.164,0.027,0.219,0.137,0.164,0.328c-0.082,0.164-0.15,0.355-0.205,0.574h2.912c0.355,0.027,0.56,0.232,0.615,0.615v3.076
			c-0.055,0.355-0.26,0.561-0.615,0.615h-2.502v2.912c-0.027,0.52-0.273,0.807-0.738,0.861c-0.465,0.055-1.012-0.027-1.641-0.246
			c-0.219-0.109-0.294-0.246-0.226-0.41c0.068-0.164,0.211-0.219,0.431-0.164c1.066,0.41,1.6,0.383,1.6-0.082v-2.871h-2.379
			c-0.438-0.055-0.67-0.287-0.697-0.697V28.77c0-0.355,0.191-0.561,0.574-0.615h2.051c0.109-0.273,0.219-0.52,0.328-0.738
			C62.264,27.279,62.373,27.225,62.537,27.252z M65.449,29.959v-0.861c-0.055-0.219-0.15-0.342-0.287-0.369h-5.045
			c-0.191,0.027-0.301,0.137-0.328,0.328v0.902H65.449z M59.789,31.518c0.027,0.219,0.137,0.342,0.328,0.369h5.045
			c0.137-0.027,0.232-0.15,0.287-0.369v-0.984h-5.66V31.518z M65.429,34.348c0.342,0.355,0.649,0.67,0.923,0.943
			c0.137,0.191,0.144,0.363,0.021,0.514s-0.267,0.143-0.431-0.021c-0.602-0.602-1.245-1.258-1.928-1.969
			c-0.191-0.164-0.226-0.32-0.103-0.471s0.293-0.158,0.513-0.021C64.752,33.65,65.086,33.992,65.429,34.348z"/>
		<path fill="#333333" d="M69.99,31.088c-0.137-0.096-0.15-0.254-0.041-0.473c0.438-0.684,0.759-1.332,0.964-1.947
			s0.376-1.252,0.513-1.908c0.055-0.219,0.164-0.314,0.328-0.287s0.26,0.15,0.287,0.369c-0.082,0.465-0.191,0.971-0.328,1.518h2.707
			v-1.682c0-0.164,0.082-0.246,0.246-0.246s0.26,0.082,0.287,0.246v1.682h3.486c0.164,0.027,0.246,0.137,0.246,0.328
			s-0.082,0.287-0.246,0.287h-3.486v2.789h3.322c0.164,0.027,0.246,0.131,0.246,0.309s-0.082,0.266-0.246,0.266h-3.281v3.076h3.855
			c0.164,0,0.246,0.096,0.246,0.287s-0.082,0.301-0.246,0.328H70.4c-0.219-0.027-0.328-0.137-0.328-0.328s0.109-0.287,0.328-0.287
			h4.02v-3.076h-3.527c-0.164,0-0.246-0.088-0.246-0.266s0.082-0.281,0.246-0.309h3.527v-2.789h-2.994
			c-0.219,0.656-0.547,1.313-0.984,1.969C70.277,31.135,70.127,31.184,69.99,31.088z"/>
		<path fill="#333333" d="M82.467,36.152c-0.123-0.082-0.129-0.246-0.02-0.492c0.246-0.602,0.424-1.25,0.533-1.947
			c0.108-0.697,0.164-1.771,0.164-3.221v-2.461c0-0.137,0.061-0.266,0.184-0.389s0.253-0.199,0.391-0.227h3.322l-0.246-0.574
			c-0.082-0.219-0.041-0.355,0.123-0.41s0.301,0,0.41,0.164l0.328,0.82h3.732c0.164,0.027,0.246,0.131,0.246,0.309
			s-0.082,0.266-0.246,0.266h-7.342c-0.246,0.027-0.369,0.15-0.369,0.369v2.174c0,1.203-0.041,2.223-0.123,3.057
			s-0.302,1.646-0.656,2.439C82.734,36.193,82.59,36.234,82.467,36.152z M91.717,35.887c0,0.178-0.082,0.279-0.246,0.307H84.17
			c-0.191-0.027-0.287-0.129-0.287-0.307s0.096-0.268,0.287-0.268h4.43c0.383-0.957,0.711-1.955,0.984-2.994
			c0.272-1.039,0.492-2.051,0.656-3.035c0.026-0.219,0.123-0.314,0.287-0.287s0.246,0.137,0.246,0.328
			c-0.384,2.078-0.889,4.074-1.518,5.988h2.215C91.635,35.619,91.717,35.709,91.717,35.887z M84.539,30.246
			c-0.027-0.219,0.033-0.361,0.184-0.43s0.281-0.008,0.391,0.184c0.383,1.477,0.697,2.953,0.943,4.43
			c-0.027,0.219-0.123,0.355-0.287,0.41s-0.261-0.055-0.287-0.328C85.263,33.008,84.949,31.586,84.539,30.246z M87.881,33.732
			c-0.15,0.027-0.252-0.068-0.307-0.287c-0.164-1.449-0.396-2.912-0.697-4.389c-0.027-0.191,0.047-0.307,0.225-0.348
			s0.294,0.033,0.35,0.225c0.272,1.477,0.506,2.953,0.697,4.43C88.121,33.582,88.031,33.705,87.881,33.732z"/>
		<path fill="#333333" d="M101.262,35.496c0.055-0.191,0.219-0.26,0.492-0.205c0.272,0.137,0.601,0.246,0.984,0.328
			c0.383,0.082,0.601-0.082,0.656-0.492v-2.01h-3.281v2.625c-0.027,0.164-0.123,0.246-0.287,0.246s-0.246-0.082-0.246-0.246v-2.625
			h-3.117c-0.027,1.012-0.261,1.969-0.697,2.871c-0.164,0.191-0.314,0.246-0.451,0.164c-0.138-0.082-0.15-0.246-0.041-0.492
			c0.465-0.902,0.683-1.846,0.656-2.83v-5.373c0.026-0.355,0.219-0.561,0.574-0.615h6.85c0.328,0.055,0.533,0.26,0.615,0.615v7.875
			c-0.056,0.547-0.328,0.842-0.82,0.883s-1.04-0.049-1.641-0.268C101.288,35.838,101.206,35.688,101.262,35.496z M99.58,27.375
			h-2.748c-0.22,0.055-0.343,0.178-0.369,0.369v1.969h3.117V27.375z M99.58,30.287h-3.117v2.256h3.117V30.287z M103.395,27.744
			c-0.027-0.191-0.138-0.314-0.328-0.369h-2.953v2.338h3.281V27.744z M103.395,30.287h-3.281v2.256h3.281V30.287z"/>
		<path fill="#333333" d="M114.025,35.619c0.068-0.191,0.227-0.26,0.473-0.205c0.328,0.137,0.662,0.232,1.004,0.287
			s0.527-0.096,0.555-0.451v-4.84c-0.027-0.191-0.138-0.314-0.328-0.369h-6.85c-0.164,0.055-0.261,0.178-0.287,0.369v5.373
			c-0.027,0.164-0.131,0.246-0.309,0.246s-0.266-0.082-0.266-0.246v-5.66c0.026-0.355,0.231-0.561,0.615-0.615h2.092
			c-0.191-0.547-0.355-0.984-0.492-1.313c-0.082-0.082-0.041-0.178,0.123-0.287h-2.215c-0.191,0-0.287-0.088-0.287-0.266
			s0.096-0.281,0.287-0.309h3.855l-0.205-0.492c-0.082-0.191-0.027-0.328,0.164-0.41c0.19-0.082,0.342-0.027,0.451,0.164
			l0.287,0.738h3.938c0.164,0.027,0.246,0.131,0.246,0.309s-0.082,0.266-0.246,0.266h-2.092c0.082,0.055,0.123,0.123,0.123,0.205
			c-0.109,0.301-0.343,0.766-0.697,1.395h2.051c0.354,0.055,0.56,0.26,0.615,0.615v5.291c-0.056,0.547-0.328,0.834-0.82,0.861
			s-0.984-0.041-1.477-0.205C114.061,35.961,113.957,35.811,114.025,35.619z M109.063,32.379c-0.068-0.164,0.021-0.301,0.268-0.41
			c0.219-0.109,0.506-0.293,0.861-0.553c0.354-0.26,0.697-0.541,1.025-0.842c0.219-0.137,0.383-0.129,0.492,0.021
			c0.108,0.15,0.096,0.307-0.041,0.471c-0.273,0.246-0.596,0.506-0.965,0.779s-0.744,0.492-1.127,0.656
			C109.303,32.584,109.131,32.543,109.063,32.379z M114.17,32.379c0.328,0.055,0.519,0.26,0.574,0.615v1.395
			c-0.056,0.383-0.246,0.602-0.574,0.656h-3.691c-0.164,0-0.309-0.061-0.432-0.184s-0.184-0.281-0.184-0.473v-1.395
			c0.055-0.355,0.26-0.561,0.615-0.615h1.641H114.17z M113.842,32.953h-3.076c-0.191,0.027-0.302,0.137-0.328,0.328v0.82
			c0.026,0.191,0.137,0.301,0.328,0.328h3.076c0.219-0.027,0.342-0.137,0.369-0.328v-0.779
			C114.184,33.104,114.061,32.98,113.842,32.953z M114.006,28.113c0.026-0.109,0.096-0.178,0.205-0.205h-3.65
			c0.082-0.027,0.178,0.027,0.287,0.164c0.055,0.137,0.137,0.342,0.246,0.615c0.108,0.273,0.219,0.547,0.328,0.82h1.887
			C113.637,28.934,113.868,28.469,114.006,28.113z M113.063,30.596c0.108-0.15,0.272-0.186,0.492-0.104
			c0.547,0.41,1.175,0.957,1.887,1.641c0.137,0.219,0.137,0.396,0,0.533c-0.138,0.137-0.302,0.109-0.492-0.082
			c-0.63-0.629-1.23-1.148-1.805-1.559C112.98,30.889,112.953,30.746,113.063,30.596z"/>
		<path fill="#333333" d="M121.951,27.867c-0.22,0.027-0.343,0.137-0.369,0.328v3.117c0.055,1.613-0.261,3.104-0.943,4.471
			c-0.138,0.164-0.268,0.199-0.391,0.104s-0.129-0.254-0.02-0.473c0.629-1.313,0.916-2.707,0.861-4.184v-3.117
			c0.055-0.52,0.231-0.793,0.533-0.82h3.322l-0.328-0.492c-0.11-0.219-0.097-0.361,0.041-0.43c0.136-0.068,0.287-0.021,0.451,0.143
			l0.451,0.779h3.568c0.164,0.027,0.246,0.131,0.246,0.309s-0.082,0.266-0.246,0.266H121.951z M125.561,29.713h3.896
			c0.164,0.027,0.246,0.131,0.246,0.309s-0.082,0.266-0.246,0.266h-3.896v1.6h0.123h2.953c0.354,0.055,0.56,0.26,0.615,0.615v3.24
			c-0.056,0.355-0.261,0.561-0.615,0.615h-5.947c-0.355-0.055-0.548-0.26-0.574-0.615v-3.199c0.026-0.465,0.26-0.684,0.697-0.656
			h2.215v-3.281c0-0.219,0.082-0.328,0.246-0.328s0.259,0.109,0.287,0.328V29.713z M122.977,32.461
			c-0.22,0.027-0.343,0.137-0.369,0.328v2.625c0.026,0.191,0.149,0.314,0.369,0.369h5.373c0.19-0.055,0.3-0.178,0.328-0.369v-2.625
			c-0.028-0.191-0.138-0.301-0.328-0.328h-2.625H122.977z"/>
	</g>
	<g>
		
			<linearGradient id="SVGID_1_" gradientUnits="userSpaceOnUse" x1="1721.9639" y1="1574.5977" x2="1721.9639" y2="1614.5977" gradientTransform="matrix(1 0 0 1 -1703.7598 -1574.5977)">
			<stop  offset="0.1" style="stop-color:#52E5E7"/>
			<stop  offset="0.9" style="stop-color:#130CB7"/>
		</linearGradient>
		<path fill="url(#SVGID_1_)" d="M18.205,35.732l18.203-10.508v1.893c0,1.848-1.311,4.117-2.912,5.042l-12.378,7.147
			c-1.603,0.924-4.224,0.924-5.825,0l-12.38-7.147C1.312,31.234,0,28.965,0,27.117v-1.893L18.205,35.732z M33.494,7.778
			L21.116,0.633C20.547,0.304,19.849,0.095,19.112,0v4.731l12.745,7.356l-12.743,7.356v5.254l17.294-9.983v-1.892
			C36.406,10.976,35.097,8.704,33.494,7.778z M17.293,24.699L0,14.716v-1.892c0-1.849,1.312-4.12,2.913-5.044L15.29,0.634
			c0.57-0.328,1.267-0.539,2.003-0.633v4.734L4.556,12.092l12.737,7.353V24.699z M19.112,26.805l17.295-9.983v2.143L19.112,28.93
			V26.805z M19.112,30.973l17.295-9.967v2.107l-17.295,9.984V30.973z"/>
		<g>
			<path fill="#333333" d="M69.713,11.823c-0.045-0.045-0.094-0.098-0.148-0.156c-0.051-0.061-0.112-0.128-0.188-0.203
				c-0.15-0.148-0.354-0.285-0.605-0.402c-0.254-0.121-0.623-0.182-1.104-0.182c-1.049,0-1.847,0.366-2.394,1.102
				c-0.547,0.733-0.819,1.543-0.819,2.427c0,0.016,0,0.026,0,0.034c0,0.008,0,0.021,0,0.033c0.013,0.779,0.291,1.49,0.831,2.137
				c0.539,0.644,1.333,0.967,2.382,0.967c1.094,0,1.834-0.26,2.215-0.775c0.383-0.518,0.692-1.24,0.934-2.17
				c0-0.014,0.002-0.025,0.013-0.033c0.007-0.008,0.012-0.018,0.012-0.035l1.774,0.138v0.426c0,0.226-0.024,0.458-0.079,0.697
				c-0.054,0.239-0.132,0.479-0.235,0.718c-0.313,0.689-0.855,1.318-1.629,1.889c-0.771,0.571-1.771,0.854-3,0.854
				c-1.454,0-2.666-0.457-3.642-1.371c-0.972-0.914-1.459-2.082-1.459-3.506c0-1.544,0.412-2.728,1.236-3.55
				c0.823-0.826,1.723-1.352,2.696-1.574c0.21-0.047,0.409-0.079,0.597-0.104c0.188-0.021,0.379-0.033,0.572-0.033
				c1.107,0,2.063,0.309,2.854,0.922c0.793,0.615,1.438,1.363,1.935,2.246l-6.744,3.643l-0.787-1.416L69.713,11.823z"/>
			<path fill="#333333" d="M76.141,4.97v9.102c0,1.035,0.27,1.877,0.797,2.529c0.531,0.65,1.285,0.979,2.263,0.979
				c0.866,0,1.555-0.252,2.057-0.754c0.501-0.501,0.827-1.053,0.979-1.649c0.045-0.165,0.08-0.323,0.103-0.474
				s0.034-0.301,0.034-0.45c0-1.078-0.27-1.884-0.809-2.416c-0.541-0.532-1.133-0.844-1.775-0.933c-0.076,0-0.146-0.004-0.213-0.012
				c-0.066-0.009-0.139-0.012-0.213-0.012c-0.42,0-0.783,0.055-1.092,0.167c-0.31,0.114-0.604,0.235-0.889,0.371
				c-0.02,0-0.027,0.005-0.046,0.013c-0.019,0.008-0.028,0.012-0.046,0.012c-0.088,0.043-0.178,0.086-0.256,0.123
				c-0.084,0.039-0.174,0.08-0.262,0.125V9.914c0.283-0.163,0.576-0.3,0.875-0.403c0.303-0.105,0.603-0.189,0.899-0.246
				c0.164-0.017,0.323-0.031,0.472-0.047c0.15-0.015,0.301-0.023,0.451-0.023c1.243,0,2.359,0.425,3.348,1.27
				c0.99,0.848,1.484,1.99,1.484,3.43c0,1.362-0.436,2.603-1.303,3.719c-0.871,1.117-2.137,1.675-3.8,1.675
				c-1.677,0-2.921-0.536-3.731-1.606c-0.807-1.07-1.213-2.334-1.213-3.787V4.97H76.141z"/>
			<path fill="#333333" d="M90.333,17.304c0.022,0,0.041,0,0.056,0c0.301-0.014,0.574-0.074,0.82-0.18
				c0.248-0.104,0.373-0.323,0.373-0.652c0-0.392-0.207-0.691-0.619-0.902c-0.413-0.209-0.947-0.404-1.605-0.584
				c-0.148-0.047-0.309-0.092-0.474-0.137c-0.166-0.043-0.338-0.091-0.517-0.135c-0.869-0.24-1.561-0.585-2.068-1.037
				c-0.511-0.449-0.764-1.064-0.764-1.847c0-1.11,0.42-1.72,1.125-2.106c0.799-0.438,1.641-0.438,2.674-0.438h3.663v1.573h-3.819
				c-0.479,0.014-0.893,0.074-1.238,0.181c-0.344,0.104-0.518,0.319-0.518,0.651c0,0.373,0.182,0.65,0.541,0.832
				c0.359,0.179,2.659,0.846,2.721,0.875c1.033,0.391,1.756,0.813,2.166,1.271c0.414,0.456,0.619,1.061,0.619,1.807
				c-0.045,0.856-0.287,1.459-0.729,1.811c-0.442,0.352-0.926,0.572-1.449,0.663c-0.18,0.028-0.357,0.049-0.539,0.057
				c-0.182,0.009-0.354,0.011-0.518,0.011c-0.019,0-4.697,0-4.697,0v-1.711C85.535,17.304,90.311,17.304,90.333,17.304z"/>
			<path fill="#333333" d="M106.751,8.452c0-0.989,0.206-1.727,0.619-2.213c0.411-0.486,0.856-0.819,1.337-1
				c0.256-0.105,0.502-0.172,0.741-0.203c0.239-0.03,0.45-0.044,0.63-0.044l1.619-0.022V6.7h-1.305
				c-0.768,0.014-1.271,0.213-1.506,0.595c-0.24,0.382-0.379,0.797-0.406,1.248c-0.018,0.074-0.021,0.149-0.021,0.224
				c0,0.076,0,0.15,0,0.227c0,0.029,0,0.061,0,0.09s0.006,0.051,0.021,0.066c0,0.016,0,0.031,0,0.043c0,0.017,0,0.033,0,0.045
				c0,0.047,0.004,0.088,0.014,0.125c0.008,0.037,0.01,0.072,0.01,0.102l2.879-0.021v1.729h-2.879v7.798h-1.753V8.452z"/>
			<path fill="#333333" d="M62.431,5.034h-1.017h-1.019l-2.523,11.113c-0.044,0.187-0.081,0.367-0.108,0.549
				c-0.026,0.158-0.04,0.273-0.042,0.347c-0.003-0.084-0.019-0.204-0.046-0.367c-0.03-0.178-0.073-0.354-0.124-0.528L54.91,6.155
				c-0.011-0.051-0.025-0.102-0.04-0.15L54.836,5.88h-0.014c-0.214-0.498-0.703-0.85-1.274-0.85c-0.57,0-1.063,0.352-1.275,0.85
				h-0.015l-0.036,0.137c-0.002,0.004-0.002,0.008-0.003,0.01l-2.696,10.18c-0.043,0.167-0.082,0.336-0.112,0.51
				c-0.031,0.16-0.045,0.281-0.048,0.365c-0.002-0.073-0.016-0.186-0.042-0.342c-0.028-0.17-0.065-0.348-0.109-0.533L46.717,5.034
				H45.69h-1.018l3.418,13.191h0.005c0.168,0.545,0.667,0.939,1.261,0.939c0.595,0,1.096-0.396,1.263-0.939h0.004l2.71-9.99
				c0.052-0.18,0.093-0.357,0.124-0.533c0.032-0.178,0.048-0.307,0.048-0.389h0.001c0,0.068,0.021,0.194,0.059,0.373
				c0.039,0.178,0.082,0.361,0.132,0.547l2.773,9.99h0.008c0.168,0.545,0.668,0.94,1.264,0.94c0.592,0,1.094-0.396,1.262-0.94h0.006
				L62.431,5.034z"/>
			<path fill="#333333" d="M104.818,14.06c0,2.774-2.248,5.023-5.022,5.023s-5.024-2.249-5.024-5.023
				c0-2.772,2.25-5.023,5.024-5.023S104.818,11.286,104.818,14.06z M99.796,10.715c-1.847,0-3.347,1.498-3.347,3.345
				c0,1.849,1.5,3.346,3.347,3.346s3.345-1.497,3.345-3.346C103.141,12.213,101.643,10.715,99.796,10.715z"/>
			<path fill="#333333" d="M130.988,9.834c0-2.774-2.25-5.022-5.023-5.022c-2.775,0-5.023,2.248-5.023,5.022
				c0,2.655,2.063,4.83,4.672,5.011l1.213-1.775c-0.273,0.073-0.563,0.109-0.857,0.109c-1.848,0-3.346-1.496-3.346-3.345
				s1.499-3.345,3.346-3.345c1.85,0,3.348,1.496,3.348,3.345c0,0.726-0.23,1.396-0.623,1.942l0,0l-1.977,3.024l-2.92,4.171h1.898
				l4.299-6.135c0.058-0.074,0.107-0.152,0.158-0.23l0.023-0.032h-0.002C130.688,11.787,130.988,10.847,130.988,9.834z"/>
			<path fill="#333333" d="M118.35,9.284h-3.687V6.88h-1.89v8.922v0.022c0,0.021,0.002,0.146,0.002,0.251
				c0,0.021-0.002,0.042-0.002,0.064c0,1.588,1.287,2.875,2.877,2.875l0,0c0.014,0,2.541,0,2.541,0v-1.752h-2.25
				c-0.018,0-0.025-0.002-0.041-0.002c-0.027,0.004-0.061,0.006-0.086,0.006c-0.061,0-0.119-0.009-0.178-0.018
				c-0.012,0-0.021,0-0.027,0c-0.039-0.005-0.074-0.016-0.111-0.029c-0.415-0.121-0.734-0.466-0.813-0.896l0,0
				c0,0,0-0.002-0.002-0.006c-0.014-0.063-0.021-0.133-0.021-0.203c0-0.01,0.001-0.018,0.001-0.026c0-0.011-0.001-0.022-0.001-0.03
				V13.44c-0.002,0-0.003,0.002-0.005,0.002v-2.428h3.688L118.35,9.284L118.35,9.284z"/>
		</g>
		<rect x="43.84" y="23.152" fill="#333333" width="88.131" height="0.32"/>
	</g>
</g>
</svg>
