<?xml version="1.0" encoding="utf-8"?>
<!-- Generator: Adobe Illustrator 16.0.0, SVG Export Plug-In . SVG Version: 6.00 Build 0)  -->
<!DOCTYPE svg PUBLIC "-//W3C//DTD SVG 1.0//EN" "http://www.w3.org/TR/2001/REC-SVG-20010904/DTD/svg10.dtd">
<svg version="1.0" id="图层_1" xmlns="http://www.w3.org/2000/svg" xmlns:xlink="http://www.w3.org/1999/xlink" x="0px" y="0px"
	 width="132px" height="40px" viewBox="0 0.5 132 40" enable-background="new 0 0.5 132 40" xml:space="preserve">
<g>
	
		<linearGradient id="SVGID_1_" gradientUnits="userSpaceOnUse" x1="699.084" y1="-701.7988" x2="699.084" y2="-741.7983" gradientTransform="matrix(1 0 0 -1 -680.8799 -701.2988)">
		<stop  offset="0.1" style="stop-color:#52E5E7"/>
		<stop  offset="0.9" style="stop-color:#130CB7"/>
	</linearGradient>
	<path fill="url(#SVGID_1_)" d="M18.204,36.232l18.203-10.508v1.893c0,1.848-1.31,4.117-2.912,5.042l-12.378,7.147
		c-1.602,0.924-4.223,0.924-5.825,0L2.913,32.659C1.311,31.734,0,29.465,0,27.617v-1.893L18.204,36.232z M33.494,8.279L21.116,1.133
		c-0.569-0.329-1.267-0.539-2.003-0.633v4.732l12.744,7.356l-12.743,7.356v5.255l17.294-9.984v-1.892
		C36.406,11.475,35.096,9.204,33.494,8.279z M17.293,25.199L0,15.216v-1.892c0-1.849,1.311-4.12,2.913-5.044L15.29,1.134
		c0.57-0.329,1.268-0.539,2.003-0.633v4.735L4.555,12.592l12.738,7.352V25.199z M19.113,27.305l17.294-9.984v2.143L19.113,29.43
		V27.305z M19.113,31.473l17.294-9.967v2.107l-17.294,9.984V31.473z"/>
	<g>
		<path fill="#333333" d="M69.712,12.323c-0.044-0.045-0.093-0.097-0.147-0.156c-0.051-0.061-0.115-0.128-0.189-0.203
			c-0.15-0.149-0.352-0.285-0.605-0.403c-0.254-0.12-0.623-0.181-1.103-0.181c-1.049,0-1.846,0.366-2.394,1.102
			c-0.546,0.733-0.82,1.543-0.82,2.426c0,0.016,0,0.027,0,0.034c0,0.008,0,0.021,0,0.034c0.014,0.779,0.292,1.49,0.832,2.136
			c0.539,0.644,1.333,0.967,2.382,0.967c1.094,0,1.833-0.26,2.214-0.776c0.383-0.517,0.693-1.239,0.934-2.169
			c0-0.014,0.002-0.026,0.011-0.034c0.007-0.007,0.012-0.018,0.012-0.034l1.774,0.137v0.426c0,0.225-0.024,0.458-0.079,0.697
			c-0.052,0.239-0.13,0.479-0.235,0.718c-0.314,0.69-0.857,1.319-1.629,1.889c-0.771,0.57-1.771,0.854-3,0.854
			c-1.454,0-2.667-0.457-3.641-1.371s-1.46-2.082-1.46-3.506c0-1.544,0.412-2.727,1.236-3.55c0.823-0.826,1.724-1.351,2.697-1.574
			c0.21-0.046,0.409-0.079,0.596-0.103c0.188-0.022,0.379-0.033,0.573-0.033c1.108,0,2.062,0.308,2.854,0.921
			c0.793,0.615,1.438,1.364,1.933,2.247l-6.743,3.642l-0.787-1.416L69.712,12.323z"/>
		<path fill="#333333" d="M76.141,5.469v9.103c0,1.034,0.266,1.876,0.797,2.528c0.531,0.651,1.285,0.979,2.26,0.979
			c0.869,0,1.555-0.252,2.057-0.754c0.501-0.501,0.827-1.053,0.977-1.65c0.045-0.165,0.08-0.323,0.103-0.473s0.034-0.301,0.034-0.45
			c0-1.078-0.27-1.884-0.809-2.416c-0.541-0.533-1.132-0.844-1.775-0.932c-0.076,0-0.146-0.005-0.213-0.013
			c-0.067-0.008-0.139-0.011-0.213-0.011c-0.42,0-0.784,0.055-1.092,0.167c-0.307,0.114-0.603,0.235-0.887,0.371
			c-0.016,0-0.029,0.005-0.045,0.013c-0.016,0.007-0.031,0.011-0.046,0.011c-0.089,0.044-0.175,0.087-0.257,0.124
			c-0.083,0.038-0.17,0.079-0.258,0.124v-1.776c0.283-0.164,0.576-0.299,0.875-0.404c0.3-0.104,0.6-0.188,0.899-0.246
			c0.164-0.016,0.322-0.031,0.472-0.046c0.15-0.015,0.301-0.024,0.45-0.024c1.244,0,2.36,0.425,3.349,1.27
			c0.99,0.848,1.484,1.99,1.484,3.429c0,1.363-0.436,2.603-1.303,3.72c-0.871,1.116-2.137,1.674-3.8,1.674
			c-1.677,0-2.921-0.536-3.731-1.606c-0.808-1.071-1.213-2.335-1.213-3.787V5.469H76.141z"/>
		<path fill="#333333" d="M90.333,17.803c0.022,0,0.041,0,0.056,0c0.301-0.013,0.574-0.074,0.82-0.179
			c0.248-0.104,0.373-0.323,0.373-0.653c0-0.391-0.207-0.691-0.619-0.901c-0.413-0.21-0.947-0.405-1.605-0.585
			c-0.151-0.046-0.309-0.091-0.474-0.136c-0.166-0.044-0.338-0.091-0.518-0.135c-0.868-0.24-1.56-0.585-2.067-1.037
			c-0.511-0.449-0.764-1.065-0.764-1.847c0-1.111,0.42-1.72,1.125-2.106c0.799-0.439,1.641-0.439,2.674-0.439h3.663v1.574h-3.82
			c-0.479,0.013-0.893,0.074-1.237,0.18c-0.344,0.104-0.518,0.32-0.518,0.651c0,0.374,0.182,0.651,0.541,0.832
			c0.359,0.179,2.659,0.846,2.721,0.876c1.032,0.39,1.756,0.813,2.166,1.27c0.414,0.457,0.619,1.061,0.619,1.808
			c-0.045,0.856-0.287,1.459-0.729,1.81c-0.442,0.352-0.925,0.572-1.449,0.663c-0.179,0.029-0.358,0.049-0.539,0.057
			c-0.181,0.008-0.353,0.011-0.517,0.011c-0.017,0-4.698,0-4.698,0v-1.712C85.535,17.803,90.311,17.803,90.333,17.803z"/>
		<path fill="#333333" d="M106.751,8.952c0-0.989,0.205-1.726,0.619-2.213c0.411-0.486,0.856-0.819,1.337-0.999
			c0.255-0.106,0.502-0.172,0.741-0.204c0.239-0.03,0.45-0.044,0.629-0.044l1.62-0.022V7.2h-1.305
			c-0.765,0.014-1.269,0.213-1.506,0.595c-0.24,0.382-0.377,0.797-0.406,1.248c-0.016,0.074-0.021,0.149-0.021,0.224
			c0,0.076,0,0.15,0,0.226c0,0.029,0,0.06,0,0.09s0.006,0.051,0.021,0.067c0,0.015,0,0.03,0,0.043c0,0.016,0,0.032,0,0.045
			c0,0.046,0.004,0.087,0.013,0.124c0.008,0.038,0.011,0.072,0.011,0.102l2.878-0.022v1.73h-2.878v7.798h-1.753V8.952z"/>
		<path fill="#333333" d="M62.431,5.534h-1.017h-1.018l-2.524,11.113c-0.044,0.187-0.081,0.368-0.109,0.549
			c-0.025,0.159-0.039,0.273-0.041,0.346c-0.003-0.083-0.019-0.203-0.047-0.366c-0.03-0.178-0.072-0.354-0.123-0.528L54.91,6.656
			c-0.01-0.051-0.025-0.103-0.04-0.151L54.836,6.38h-0.014c-0.213-0.498-0.703-0.849-1.274-0.849c-0.571,0-1.063,0.351-1.276,0.849
			h-0.014l-0.037,0.137c-0.001,0.004-0.001,0.008-0.002,0.01l-2.696,10.179c-0.044,0.167-0.082,0.336-0.114,0.51
			c-0.03,0.16-0.044,0.281-0.047,0.365c-0.002-0.073-0.015-0.186-0.042-0.342c-0.028-0.17-0.065-0.348-0.109-0.533L46.717,5.534
			H45.69h-1.017l3.418,13.191h0.004c0.168,0.545,0.668,0.94,1.262,0.94c0.594,0,1.095-0.396,1.262-0.94h0.004l2.71-9.99
			c0.051-0.179,0.093-0.357,0.124-0.533c0.032-0.177,0.048-0.306,0.048-0.389h0.001c0,0.069,0.02,0.195,0.058,0.373
			c0.039,0.179,0.082,0.362,0.133,0.548l2.773,9.99h0.008c0.168,0.545,0.667,0.94,1.263,0.94c0.592,0,1.094-0.396,1.262-0.94h0.006
			L62.431,5.534z"/>
		<path fill="#333333" d="M104.818,14.56c0,2.774-2.248,5.023-5.022,5.023s-5.024-2.249-5.024-5.023c0-2.773,2.25-5.024,5.024-5.024
			S104.818,11.786,104.818,14.56z M99.796,11.215c-1.848,0-3.347,1.498-3.347,3.345c0,1.848,1.499,3.346,3.347,3.346
			c1.847,0,3.345-1.498,3.345-3.346C103.141,12.713,101.643,11.215,99.796,11.215z"/>
		<path fill="#333333" d="M130.988,10.334c0-2.774-2.25-5.022-5.024-5.022s-5.022,2.248-5.022,5.022c0,2.656,2.062,4.83,4.672,5.01
			l1.209-1.775c-0.272,0.072-0.561,0.11-0.857,0.11c-1.847,0-3.345-1.496-3.345-3.345c0-1.848,1.499-3.344,3.345-3.344
			c1.848,0,3.346,1.496,3.346,3.344c0,0.725-0.23,1.396-0.623,1.943l0,0l-1.975,3.024l-2.92,4.171h1.902l4.295-6.135
			c0.059-0.075,0.111-0.152,0.162-0.23l0.022-0.033h-0.002C130.688,12.287,130.988,11.347,130.988,10.334z"/>
		<path fill="#333333" d="M118.35,9.784h-3.687V7.38h-1.89v8.922v0.022c0,0.02,0.002,0.145,0.002,0.251
			c0,0.021-0.002,0.042-0.002,0.064c0,1.588,1.287,2.875,2.877,2.875l0,0c0.014,0,2.541,0,2.541,0v-1.751h-2.25
			c-0.015,0-0.026-0.002-0.041-0.002c-0.027,0.003-0.058,0.005-0.086,0.005c-0.059,0-0.119-0.008-0.178-0.017
			c-0.009,0-0.02,0-0.027,0c-0.039-0.005-0.074-0.016-0.111-0.03c-0.415-0.12-0.734-0.465-0.813-0.896l0,0c0,0,0-0.002-0.002-0.005
			c-0.012-0.064-0.018-0.134-0.018-0.203c0-0.01,0.001-0.019,0.001-0.027c0-0.011-0.001-0.023-0.001-0.031V13.94
			c-0.002,0.001-0.003,0.002-0.005,0.002v-2.427h3.687L118.35,9.784L118.35,9.784z"/>
	</g>
	<path fill="#333333" d="M45.208,27.307v0.99h-1.035v-0.006c-0.233-0.04-0.412-0.243-0.412-0.488c0-0.246,0.179-0.449,0.412-0.488
		v-0.008H45.208L45.208,27.307z M44.173,31.494v0.007c-0.233,0.039-0.412,0.243-0.412,0.489c0,0.244,0.179,0.445,0.412,0.486v0.006
		h1.036v-0.988H44.173L44.173,31.494z M44.173,35.596v0.008c-0.233,0.041-0.412,0.242-0.412,0.488c0,0.245,0.179,0.447,0.412,0.486
		v0.01h1.036v-0.99L44.173,35.596L44.173,35.596z M53.547,36.697c-0.249,0-0.461-0.184-0.501-0.426h-0.008v-1.28l1.018-1.019v2.299
		h-0.008C54.008,36.516,53.796,36.697,53.547,36.697z M51.014,36.697c-0.28,0-0.508-0.229-0.508-0.508
		c0-0.024,0.003-0.053,0.007-0.08h-0.007v-2.117h1.017v2.117h-0.006c0.003,0.027,0.006,0.056,0.006,0.08
		C51.523,36.469,51.296,36.697,51.014,36.697z M48.482,36.697c-0.247,0-0.461-0.184-0.501-0.426h-0.008v-1.28l1.018-1.019v2.299
		h-0.008C48.944,36.516,48.73,36.697,48.482,36.697z M46.531,36.697c-0.281,0-0.509-0.229-0.509-0.51v-8.881h8.22
		c0.281,0,0.509,0.229,0.509,0.508c0,0.281-0.228,0.508-0.509,0.508H47.04v7.867C47.04,36.469,46.811,36.697,46.531,36.697z
		 M54.226,29.613c0-0.256-0.192-0.471-0.444-0.502v-0.004h-5.081v-0.75l-1.012,1.014l-0.005,0.005v4.091h5.544l0.994-0.994
		l-0.009-0.009h0.014L54.226,29.613L54.226,29.613z M53.209,31.912l-0.538,0.537H48.7v-2.323h4.509V31.912z M51.796,31.796h-2.245
		v-1.019h2.257v0.004c0.014-0.002,0.026-0.004,0.04-0.004c0.28,0,0.509,0.229,0.509,0.51c0,0.279-0.229,0.509-0.509,0.509
		c-0.014,0-0.03,0-0.043-0.002L51.796,31.796z"/>
	<path fill="#333333" d="M75.846,36.697c-0.021,0-0.039-0.002-0.061-0.004l-0.002,0.004h-7.54v-0.006
		c-0.245-0.041-0.427-0.256-0.427-0.502v-2.686l1.018-1.018v3.191h6.501v-0.587l1.017-1.019v2.107c0,0.004,0,0.004,0,0.008
		C76.352,36.469,76.124,36.697,75.846,36.697z M76.102,32.225c-0.004,0-0.006,0-0.009,0h-0.006h-8.694v-1.016H76.1l0,0
		c0.281,0,0.51,0.229,0.51,0.508C76.607,31.997,76.381,32.225,76.102,32.225z M76.102,29.182h-8.283v-1.016h8.283
		c0.279,0,0.508,0.227,0.508,0.507C76.609,28.955,76.381,29.182,76.102,29.182z"/>
	<path fill="#333333" d="M65.137,35.68H61.66v-2.602h3.217l0.086-0.014c0.23-0.049,0.397-0.258,0.397-0.496
		c0-0.237-0.166-0.445-0.397-0.496l-0.086-0.014H61.66v-2.104h3.217l0.086-0.013c0.23-0.051,0.397-0.26,0.397-0.498
		c0-0.235-0.166-0.443-0.397-0.496l-0.086-0.012H61.66v-1.625h-1.018v1.625h-3.11v-0.771h-1.017v4.972h0.006
		c-0.003,0.026-0.006,0.053-0.006,0.076c0,0.28,0.229,0.51,0.509,0.51c0.28,0,0.508-0.229,0.508-0.51
		c0-0.023-0.002-0.05-0.006-0.076h0.006v-0.062h3.11v2.603H56.5v1.018h8.625h0.003c0.002,0,0.002,0,0.003,0
		c0.282,0,0.511-0.228,0.511-0.506C65.642,35.91,65.417,35.686,65.137,35.68z M60.643,32.061h-3.11v-2.105h3.11V32.061z"/>
	<circle cx="79.816" cy="31.852" r="0.965"/>
	<rect x="43.84" y="23.652" fill="#333333" width="88.131" height="0.32"/>
	<g>
		<path fill="#333333" d="M86.043,32.48c-0.113,0.088-0.232,0.056-0.357-0.096c-0.076-0.074-0.276-0.49-0.604-1.244v5.428
			c-0.025,0.152-0.113,0.228-0.264,0.228c-0.151,0-0.228-0.075-0.228-0.228v-5.2c-0.149,0.604-0.302,1.131-0.452,1.583
			c-0.15,0.451-0.353,0.88-0.604,1.281c-0.126,0.15-0.245,0.188-0.357,0.113c-0.113-0.076-0.119-0.214-0.02-0.414
			c0.251-0.529,0.496-1.113,0.734-1.754s0.435-1.287,0.584-1.941h-1.131c-0.15,0-0.226-0.074-0.226-0.227
			c0-0.15,0.075-0.238,0.226-0.264h1.244v-1.885c0-0.176,0.075-0.264,0.227-0.264c0.15,0,0.238,0.088,0.265,0.264v1.885h0.903
			c0.152,0.025,0.228,0.113,0.228,0.264c0,0.151-0.075,0.227-0.228,0.227h-0.903v0.34c0.149,0.227,0.326,0.472,0.526,0.734
			c0.201,0.264,0.365,0.51,0.49,0.735C86.175,32.248,86.156,32.393,86.043,32.48z M88.775,36.1c0.051-0.164,0.176-0.222,0.377-0.17
			c0.302,0.125,0.666,0.213,1.094,0.264c0.502-0.075,0.804-0.565,0.904-1.471c0.1-0.904,0.149-1.834,0.149-2.789v-2.111
			c-0.024-0.199-0.126-0.313-0.301-0.338h-3.731c-0.201,0.578-0.504,1.144-0.904,1.695c-0.15,0.15-0.282,0.188-0.396,0.113
			c-0.113-0.075-0.119-0.214-0.019-0.415c0.651-0.954,1.079-1.997,1.28-3.128c0.051-0.15,0.15-0.214,0.303-0.188
			c0.15,0.024,0.226,0.125,0.226,0.301c-0.051,0.252-0.139,0.615-0.264,1.094h3.771c0.301,0.075,0.477,0.264,0.526,0.564v2.412
			c0,1.584-0.095,2.771-0.282,3.563c-0.188,0.792-0.609,1.199-1.263,1.227c-0.453,0-0.867-0.076-1.244-0.228
			C88.801,36.395,88.725,36.262,88.775,36.1z M88.361,34.082c0.603-0.05,1.143-0.126,1.619-0.227
			c-0.326-0.754-0.578-1.319-0.754-1.696c-0.074-0.226-0.037-0.376,0.113-0.452c0.151-0.075,0.276-0.023,0.377,0.15
			c0.402,0.83,0.754,1.658,1.057,2.488c0.05,0.252,0,0.408-0.15,0.471c-0.15,0.063-0.266-0.006-0.34-0.207l-0.113-0.227
			c-0.578,0.102-1.199,0.176-1.865,0.227s-1.188,0.063-1.563,0.037c-0.402-0.023-0.527-0.227-0.377-0.604
			c0.276-0.604,0.571-1.249,0.886-1.939c0.314-0.691,0.598-1.363,0.85-2.018c0.1-0.15,0.226-0.193,0.377-0.132
			c0.149,0.063,0.199,0.194,0.149,0.396c-0.428,1.057-0.955,2.236-1.583,3.543c-0.126,0.15-0.102,0.228,0.075,0.228
			C87.344,34.145,87.758,34.133,88.361,34.082z"/>
		<path fill="#333333" d="M101.477,36.27c0.151,0,0.228,0.08,0.228,0.244c0,0.162-0.075,0.258-0.228,0.282h-2.563
			c-1.859,0-3.229-0.489-4.107-1.47c-0.178,0.227-0.365,0.471-0.565,0.734c-0.202,0.264-0.415,0.482-0.642,0.66
			c-0.201,0.1-0.34,0.1-0.414,0c-0.076-0.102-0.052-0.215,0.074-0.341c0.479-0.478,0.881-0.954,1.206-1.433
			c-0.428-0.702-0.741-1.532-0.942-2.487c-0.024-0.175,0.031-0.282,0.17-0.319s0.246,0.019,0.32,0.17
			c0.051,0.326,0.133,0.685,0.245,1.073c0.113,0.39,0.282,0.748,0.509,1.074c0.201-0.526,0.353-1.093,0.453-1.696
			c0.1-0.603,0.074-0.93-0.076-0.979h-1.205c-0.377-0.051-0.49-0.239-0.34-0.564c0.176-0.252,0.396-0.592,0.659-1.02
			c0.265-0.428,0.496-0.829,0.697-1.206c0.075-0.226,0.038-0.339-0.113-0.339h-1.206c-0.176,0-0.264-0.082-0.264-0.245
			s0.088-0.257,0.264-0.282h1.547c0.149,0,0.281,0.051,0.396,0.15s0.119,0.289,0.019,0.564c-0.352,0.653-0.791,1.383-1.318,2.188
			c-0.102,0.15-0.075,0.226,0.074,0.226h0.867c0.401-0.024,0.59,0.177,0.565,0.604c0,0.854-0.239,1.859-0.716,3.015
			c0.502,0.528,1.08,0.894,1.732,1.095c0.653,0.199,1.332,0.301,2.035,0.301H101.477L101.477,36.27z M98.387,35.777
			c-0.15,0-0.227-0.074-0.227-0.227v-0.716h-2.035c-0.15,0-0.227-0.075-0.227-0.228c0-0.149,0.074-0.237,0.227-0.264h2.035v-0.979
			h-1.998c-0.15,0-0.227-0.082-0.227-0.245s0.076-0.259,0.227-0.283h1.998v-0.942h-1.848c-0.176,0-0.265-0.08-0.265-0.244
			s0.089-0.258,0.265-0.282h1.848v-0.904h-2.148c-0.15,0-0.227-0.075-0.227-0.228c0-0.15,0.074-0.237,0.227-0.264h2.148v-1.018
			h-1.848c-0.176,0-0.265-0.081-0.265-0.245c0-0.163,0.089-0.258,0.265-0.282h1.848v-0.414c0-0.177,0.074-0.265,0.227-0.265
			c0.15,0,0.238,0.088,0.264,0.265v0.414h1.508c0.428,0.051,0.666,0.313,0.717,0.791v0.754h0.604
			c0.15,0.025,0.227,0.113,0.227,0.264c0,0.152-0.075,0.228-0.227,0.228h-0.604v0.679c-0.025,0.478-0.302,0.729-0.829,0.754H98.65
			v0.941h2.336c0.152,0.025,0.228,0.12,0.228,0.283s-0.075,0.245-0.228,0.245H98.65v0.979h2.563c0.15,0.024,0.227,0.112,0.227,0.264
			c0,0.15-0.075,0.227-0.227,0.227H98.65v0.641C98.625,35.678,98.537,35.777,98.387,35.777z M100.384,29.975v-0.717
			c-0.024-0.176-0.139-0.275-0.339-0.302h-1.396v1.019H100.384z M100.045,31.368c0.2-0.024,0.313-0.125,0.339-0.302v-0.604H98.65
			v0.904L100.045,31.368L100.045,31.368z"/>
		<path fill="#333333" d="M107.618,35.627c0.955-0.05,1.897-0.15,2.827-0.301c-0.504-0.93-1.006-1.771-1.508-2.525
			c-0.127-0.201-0.119-0.352,0.02-0.453c0.139-0.1,0.281-0.074,0.434,0.076c0.778,1.206,1.494,2.5,2.147,3.883
			c0.075,0.176,0.051,0.307-0.075,0.396c-0.126,0.088-0.238,0.069-0.339-0.056c-0.201-0.328-0.353-0.592-0.452-0.793
			c-2.412,0.276-4.648,0.428-6.71,0.453c-0.251-0.025-0.414-0.119-0.489-0.283c-0.074-0.164-0.014-0.357,0.188-0.584
			c0.478-0.627,0.999-1.318,1.563-2.072s0.998-1.395,1.301-1.924h-3.092c-0.149,0-0.226-0.08-0.226-0.244
			c0-0.163,0.075-0.258,0.226-0.282h7.991c0.15,0.024,0.226,0.119,0.226,0.282c0,0.164-0.074,0.244-0.226,0.244h-4.637
			c0.176,0.102,0.188,0.289,0.038,0.565c-0.503,0.806-1.346,1.96-2.525,3.468c-0.126,0.15-0.101,0.238,0.075,0.265
			C105.583,35.715,106.663,35.678,107.618,35.627z M104,28.314c0-0.15,0.075-0.238,0.227-0.265h6.445
			c0.176,0.025,0.264,0.113,0.264,0.265c0,0.15-0.088,0.227-0.264,0.227h-6.445C104.075,28.541,104,28.466,104,28.314z"/>
		<path fill="#333333" d="M114.479,28.314c-0.177,0.051-0.277,0.164-0.303,0.34v2.902c0,0.854-0.025,1.657-0.074,2.412
			c-0.052,0.754-0.228,1.508-0.527,2.262c-0.102,0.176-0.215,0.227-0.34,0.149c-0.127-0.075-0.15-0.2-0.075-0.377
			c0.2-0.452,0.339-1.022,0.415-1.715c0.074-0.69,0.111-1.576,0.111-2.657V28.54c0.025-0.452,0.228-0.69,0.604-0.716h7.124
			c0.15,0.025,0.227,0.113,0.227,0.264s-0.076,0.227-0.227,0.227h-3.129H114.479z M114.666,36.191
			c-0.201,0.102-0.34,0.082-0.415-0.057c-0.075-0.138-0.051-0.27,0.075-0.396c0.628-0.477,1.207-1.055,1.734-1.732
			c0.176-0.15,0.325-0.17,0.451-0.057c0.127,0.113,0.127,0.271,0,0.471C115.984,35.023,115.369,35.615,114.666,36.191z
			 M118.021,28.428c0.149,0.025,0.201,0.127,0.149,0.303c-0.075,0.15-0.138,0.326-0.188,0.527h2.678
			c0.326,0.024,0.515,0.213,0.564,0.564v2.826c-0.051,0.328-0.238,0.517-0.564,0.565h-2.301v2.677
			c-0.024,0.478-0.25,0.74-0.678,0.791s-0.931-0.025-1.508-0.226c-0.201-0.103-0.271-0.228-0.208-0.377
			c0.063-0.151,0.194-0.202,0.396-0.151c0.979,0.377,1.471,0.352,1.471-0.074v-2.64h-2.188c-0.401-0.05-0.615-0.264-0.641-0.642
			V29.82c0-0.325,0.176-0.514,0.528-0.563h1.884c0.102-0.251,0.201-0.478,0.302-0.679C117.77,28.453,117.87,28.402,118.021,28.428z
			 M120.695,30.916v-0.792c-0.051-0.2-0.137-0.313-0.264-0.339h-4.636c-0.177,0.025-0.276,0.126-0.302,0.302v0.829H120.695z
			 M115.495,32.348c0.024,0.202,0.125,0.315,0.302,0.34h4.637c0.125-0.023,0.213-0.138,0.264-0.34v-0.904h-5.201L115.495,32.348
			L115.495,32.348z M120.678,34.949c0.313,0.326,0.598,0.615,0.848,0.865c0.127,0.177,0.134,0.334,0.021,0.473
			c-0.112,0.138-0.245,0.132-0.396-0.02c-0.553-0.554-1.145-1.156-1.771-1.81c-0.176-0.149-0.207-0.295-0.094-0.435
			c0.113-0.137,0.27-0.145,0.471-0.019C120.057,34.309,120.363,34.623,120.678,34.949z"/>
		<path fill="#333333" d="M123.259,31.952c-0.126-0.089-0.139-0.231-0.038-0.435c0.401-0.627,0.697-1.225,0.887-1.789
			c0.188-0.565,0.346-1.149,0.472-1.754c0.05-0.199,0.149-0.287,0.301-0.264c0.151,0.025,0.239,0.139,0.265,0.339
			c-0.076,0.429-0.177,0.894-0.302,1.396h2.487V27.9c0-0.15,0.074-0.228,0.227-0.228c0.15,0,0.238,0.076,0.264,0.228v1.545h3.205
			c0.149,0.025,0.226,0.127,0.226,0.302c0,0.177-0.075,0.265-0.226,0.265h-3.205v2.563h3.054c0.151,0.025,0.228,0.119,0.228,0.283
			c0,0.162-0.076,0.244-0.228,0.244h-3.015v2.826h3.543c0.149,0,0.226,0.088,0.226,0.264c0,0.177-0.075,0.277-0.226,0.303h-7.766
			c-0.201-0.025-0.302-0.126-0.302-0.303c0-0.176,0.101-0.264,0.302-0.264h3.693v-2.826h-3.241c-0.151,0-0.228-0.082-0.228-0.244
			c0-0.164,0.076-0.258,0.228-0.283h3.241v-2.563h-2.751c-0.202,0.604-0.503,1.207-0.905,1.809
			C123.521,31.996,123.384,32.041,123.259,31.952z"/>
	</g>
</g>
</svg>
