<svg version="1.0" xmlns="http://www.w3.org/2000/svg" width="502" height="128"><path fill="#333" d="M206.089 40.139a9.608 9.608 0 0 1-.443-.474 12.297 12.297 0 0 0-.58-.615c-.455-.453-1.067-.865-1.84-1.225-.772-.363-1.886-.546-3.341-.546-3.182 0-5.601 1.11-7.261 3.34-1.657 2.226-2.488 4.682-2.488 7.36v.205c.046 2.364.886 4.522 2.523 6.479 1.635 1.953 4.044 2.932 7.226 2.932 3.317 0 5.557-.785 6.717-2.353 1.159-1.567 2.1-3.76 2.83-6.58 0-.042.008-.078.031-.103.026-.021.036-.053.036-.102l5.385.412v1.294c0 .68-.078 1.387-.24 2.112a11.374 11.374 0 0 1-.714 2.18c-.954 2.092-2.601 4-4.942 5.727-2.34 1.729-5.375 2.593-9.102 2.593-4.41 0-8.089-1.387-11.044-4.159-2.955-2.773-4.431-6.316-4.431-10.636 0-4.682 1.249-8.27 3.75-10.767 2.498-2.502 5.227-4.095 8.182-4.776a20.35 20.35 0 0 1 1.804-.31 14.656 14.656 0 0 1 1.74-.099c3.364 0 6.25.932 8.659 2.794a22.325 22.325 0 0 1 5.862 6.816l-20.453 11.045-2.387-4.295 14.521-8.249zM225.587 19.349v27.609c0 3.138.806 5.696 2.421 7.672 1.61 1.975 3.896 2.965 6.851 2.965 2.637 0 4.716-.762 6.24-2.286 1.521-1.519 2.51-3.191 2.965-5.007.135-.499.238-.979.306-1.432.069-.457.103-.913.103-1.366 0-3.271-.818-5.714-2.454-7.329-1.637-1.614-3.432-2.557-5.385-2.827a5.51 5.51 0 0 1-.647-.036 5.595 5.595 0 0 0-.648-.033c-1.273 0-2.377.167-3.307.51a32.15 32.15 0 0 0-2.692 1.123.3.3 0 0 0-.136.036.302.302 0 0 1-.138.034c-.272.134-.534.263-.783.375-.251.117-.514.24-.783.378v-5.388c.859-.5 1.747-.908 2.656-1.228a20.098 20.098 0 0 1 2.729-.747 108.4 108.4 0 0 0 1.43-.139c.455-.044.91-.069 1.364-.069 3.772 0 7.16 1.286 10.159 3.851 2.998 2.57 4.499 6.037 4.499 10.398 0 4.136-1.319 7.898-3.953 11.284-2.638 3.385-6.479 5.078-11.523 5.078-5.088 0-8.861-1.627-11.317-4.874-2.452-3.25-3.681-7.08-3.681-11.488V19.349h5.724zM268.641 56.762h.168a7.129 7.129 0 0 0 2.49-.544c.75-.317 1.124-.981 1.124-1.982 0-1.183-.625-2.096-1.875-2.733s-2.874-1.23-4.873-1.774a53.75 53.75 0 0 0-1.433-.411c-.501-.135-1.023-.276-1.568-.411-2.637-.727-4.727-1.773-6.271-3.144-1.547-1.364-2.318-3.232-2.318-5.601 0-3.373 1.271-5.217 3.41-6.391 2.424-1.333 4.977-1.333 8.113-1.333h11.11v4.776h-11.59c-1.454.042-2.705.225-3.748.543-1.047.315-1.569.975-1.569 1.978 0 1.135.547 1.974 1.637 2.522 1.093.542 8.066 2.565 8.251 2.657 3.136 1.183 5.325 2.467 6.577 3.852 1.252 1.387 1.875 3.218 1.875 5.488-.137 2.592-.875 4.423-2.215 5.488-1.343 1.066-2.808 1.737-4.397 2.012-.546.089-1.091.147-1.636.17-.547.023-1.068.032-1.568.032h-14.25v-5.193c-.002-.001 14.485-.001 14.556-.001zM318.439 29.916c0-3.001.625-5.238 1.875-6.717 1.248-1.475 2.603-2.486 4.058-3.031a8.81 8.81 0 0 1 2.248-.614 15.278 15.278 0 0 1 1.909-.138l4.91-.067v5.25h-3.953c-2.321.046-3.846.646-4.57 1.805a8.055 8.055 0 0 0-1.229 3.786 3.462 3.462 0 0 0-.064.679V31.826c0 .091.02.158.064.204v.27c0 .138.012.262.035.376.024.113.034.218.034.308l8.728-.069v5.25h-8.728v23.654h-5.317V29.916zM184.003 19.547H177.829l-7.655 33.708a22.005 22.005 0 0 0-.331 1.663c-.077.483-.12.829-.125 1.051a9.077 9.077 0 0 0-.142-1.111 15.27 15.27 0 0 0-.375-1.603l-8.014-30.311a4.653 4.653 0 0 0-.122-.46l-.099-.372h-.039c-.647-1.511-2.134-2.573-3.868-2.573-1.733 0-3.223 1.062-3.871 2.573h-.042l-.111.416a.154.154 0 0 1-.007.029l-8.178 30.874c-.135.506-.25 1.021-.346 1.547-.09.485-.135.852-.143 1.107a8.104 8.104 0 0 0-.128-1.036 24.785 24.785 0 0 0-.33-1.618l-7.562-33.884h-6.202l10.368 40.011h.012c.511 1.652 2.027 2.85 3.83 2.85 1.801 0 3.321-1.197 3.828-2.85h.015l8.219-30.3c.155-.545.281-1.084.375-1.62.096-.536.144-.926.144-1.179h.007c0 .211.059.593.176 1.135.114.545.249 1.099.402 1.664l8.414 30.3h.024c.511 1.652 2.027 2.85 3.831 2.85 1.798 0 3.319-1.197 3.83-2.85h.018l10.371-40.011zM312.576 46.924c0 8.415-6.821 15.237-15.234 15.237-8.418 0-15.238-6.822-15.238-15.237 0-8.414 6.82-15.238 15.238-15.238 8.413 0 15.234 6.824 15.234 15.238zm-15.234-10.146c-5.605 0-10.148 4.543-10.148 10.146 0 5.604 4.543 10.149 10.148 10.149 5.604 0 10.145-4.545 10.145-10.149-.003-5.603-4.544-10.146-10.145-10.146zM391.955 34.108c0-8.416-6.823-15.236-15.239-15.236-8.414 0-15.235 6.82-15.235 15.236 0 8.057 6.254 14.649 14.174 15.195l3.664-5.387c-.83.22-1.701.338-2.603.338-5.603 0-10.146-4.541-10.146-10.146 0-5.606 4.544-10.146 10.146-10.146 5.604 0 10.147 4.54 10.147 10.146 0 2.198-.701 4.231-1.889 5.893l-5.988 9.174-8.859 12.65h5.773l13.029-18.608c.174-.228.334-.462.492-.699l.068-.099h-.006a15.16 15.16 0 0 0 2.472-8.311zM353.617 32.438h-11.182v-7.294h-5.728v27.132c0 .059.006.44.008.763 0 .065-.008.127-.008.193 0 4.819 3.907 8.723 8.729 8.723h7.703v-5.314h-6.82c-.045 0-.084-.003-.127-.003a3.09 3.09 0 0 1-.256.012c-.184 0-.362-.021-.543-.048-.027-.002-.057-.002-.084-.002a1.295 1.295 0 0 1-.338-.091 3.486 3.486 0 0 1-2.467-2.719s0-.007-.002-.013a3.481 3.481 0 0 1-.057-.618c0-.029.004-.055.004-.084a1.574 1.574 0 0 1-.004-.095v-7.938c-.006.002-.008.006-.014.006v-7.36h11.182v-5.25h.004z"/><linearGradient id="a" gradientUnits="userSpaceOnUse" x1="228.555" y1="-105.418" x2="228.555" y2="-229.782" gradientTransform="matrix(1 0 0 -1 -169.96 -103.6)"><stop offset=".1" stop-color="#52e5e7"/><stop offset=".9" stop-color="#130cb7"/></linearGradient><path fill="url(#a)" d="M58.596 112.914l56.593-32.668v5.88c0 5.746-4.074 12.808-9.054 15.679l-38.486 22.223c-4.979 2.873-13.129 2.873-18.11 0l-38.483-22.223C6.076 98.934 2 91.872 2 86.126v-5.88l56.596 32.668zm47.539-86.909L67.649 3.785c-1.768-1.021-3.938-1.672-6.226-1.966v14.709l39.618 22.874-39.617 22.87v16.337l53.766-31.041v-5.88c-.001-5.75-4.075-12.808-9.055-15.683zm-50.37 52.604L2 47.569v-5.88c0-5.751 4.076-12.809 9.057-15.684L49.54 3.785c1.771-1.021 3.941-1.672 6.226-1.966v14.718L16.16 39.411l39.605 22.856v16.342zm5.659 6.547l53.766-31.042v6.662L61.424 91.764v-6.608zm0 12.959L115.19 67.13v6.552l-53.766 31.039v-6.606z"/><path fill="#333" d="M135.801 88.21v2.356h-2.462v-.016a1.176 1.176 0 1 1 0-2.319v-.021h2.462zm-2.464 9.959v.019a1.178 1.178 0 0 0 0 2.32v.018h2.464V98.17l-2.464-.001zm0 9.755v.018a1.178 1.178 0 1 0 0 2.322v.021h2.464v-2.359l-2.464-.002zm22.294 2.622a1.213 1.213 0 0 1-1.191-1.014h-.018v-3.046l2.42-2.42v5.466h-.019a1.214 1.214 0 0 1-1.192 1.014zm-6.023 0a1.21 1.21 0 0 1-1.193-1.397h-.015v-5.041l2.418.004v5.037h-.014a1.21 1.21 0 0 1-1.196 1.397zm-6.021 0a1.217 1.217 0 0 1-1.192-1.014h-.017v-3.046l2.419-2.42v5.466h-.018a1.215 1.215 0 0 1-1.192 1.014zm-4.643 0c-.667 0-1.21-.543-1.21-1.211V88.21h19.548c.667 0 1.21.543 1.21 1.211 0 .665-.543 1.208-1.21 1.208h-17.128v18.71c0 .664-.543 1.207-1.21 1.207zm18.302-16.847c0-.61-.455-1.122-1.056-1.198v-.008h-12.085v-1.781l-2.407 2.409-.012.01v9.73h13.185l2.364-2.362-.021-.022h.033l-.001-6.778zm-2.418 5.466l-1.28 1.278h-9.444v-5.531h10.724v4.253zm-3.36-.278h-5.338v-2.42h5.367v.008c.033-.004.063-.008.095-.008a1.21 1.21 0 1 1 0 2.42c-.033 0-.069 0-.104-.003l-.02.003zM212.862 110.546a1.82 1.82 0 0 1-.142-.007l-.004.007h-17.932v-.017a1.214 1.214 0 0 1-1.012-1.19v-6.388l2.417-2.418v7.593h15.462v-1.396l2.416-2.42v5.026c.002.667-.54 1.21-1.205 1.21zm.608-10.637h-20.712v-2.416H213.469c.667 0 1.209.542 1.209 1.207s-.54 1.209-1.208 1.209zm0-7.237h-19.697v-2.418h19.697a1.208 1.208 0 1 1 0 2.418zM185.297 108.126h-8.269v-6.19h7.653l.204-.029c.549-.12.946-.611.946-1.178 0-.568-.396-1.063-.946-1.184l-.204-.029h-7.653v-5.008h7.653l.204-.029c.549-.125.946-.617.946-1.183 0-.563-.396-1.058-.946-1.18l-.204-.028h-7.653v-3.867h-2.419v3.867h-7.396v-1.834h-2.418v11.826h.014a1.21 1.21 0 0 0 1.196 1.391 1.208 1.208 0 0 0 1.193-1.391h.015v-.146h7.396v6.191h-9.854v2.42h20.53c.669 0 1.213-.543 1.213-1.207s-.538-1.201-1.201-1.212zm-10.688-8.61h-7.396v-5.008h7.396v5.008zM238.216 98.831v11.601c-.057.336-.225.504-.505.504-.282 0-.42-.168-.42-.504V97.738c-.394 1.625-.787 2.998-1.177 4.119a21.01 21.01 0 0 1-1.345 3.192c-.282.449-.534.589-.757.421-.282-.168-.309-.505-.084-1.009 1.288-2.522 2.407-5.379 3.362-8.573h-2.857c-.45 0-.646-.14-.589-.42-.058-.224.139-.392.589-.505h2.857v-4.37c0-.392.138-.589.42-.589.222 0 .391.197.505.589v4.37h2.185c.336.058.532.226.589.505-.057.28-.253.42-.589.42h-2.185v1.598a72.308 72.308 0 0 1 2.521 3.529c.169.449.169.785 0 1.01-.281.168-.533.027-.756-.422-.335-.558-.923-1.482-1.764-2.772zm13.279-4.622h-8.236a37.337 37.337 0 0 1-1.933 3.95c-.337.394-.59.504-.758.336-.281-.224-.281-.56 0-1.009 1.399-2.354 2.381-4.707 2.942-7.061.111-.447.306-.645.589-.589.222.112.306.394.251.841a51.021 51.021 0 0 1-.672 2.521h8.152c.729.057 1.146.447 1.262 1.177v5.463c.168 4.261-.113 7.285-.841 9.078-.673 1.681-2.552 2.071-5.632 1.177-.504-.227-.701-.449-.588-.673.055-.336.336-.421.841-.253 2.521.841 4.061.561 4.622-.84.559-1.4.783-4.202.673-8.405V94.88c-.058-.392-.28-.614-.672-.671zm-3.613 6.053c-.168-.394-.142-.699.083-.927.223-.11.448 0 .673.337a119.757 119.757 0 0 1 2.438 5.715c.168.617.138.954-.084 1.01-.282.168-.534 0-.757-.504l-.252-.674c-1.345.281-2.72.479-4.118.59-1.459.111-2.72.226-3.782.336-.786-.057-1.039-.531-.756-1.43a419.89 419.89 0 0 0 2.101-4.453 97.75 97.75 0 0 0 1.85-4.455c.222-.393.474-.531.756-.42.223.111.279.393.168.84-.954 2.521-2.158 5.211-3.614 8.068-.281.561-.168.785.337.672.84 0 1.902-.084 3.193-.252a23.338 23.338 0 0 0 3.53-.42c-.842-1.736-1.43-3.082-1.766-4.033zM276.189 110.264c-.058.336-.282.504-.672.504h-5.969c-4.259-.113-7.343-1.205-9.244-3.279a23.663 23.663 0 0 1-2.859 3.279c-.449.224-.701.224-.756 0-.168-.281-.084-.563.252-.84.896-.898 1.793-1.962 2.689-3.195-1.009-1.567-1.765-3.502-2.27-5.799-.057-.447.054-.729.337-.84.222-.058.42.139.588.588.11.784.336 1.625.673 2.521.336.952.756 1.793 1.26 2.521.561-1.063 1.01-2.381 1.346-3.951.224-1.455.139-2.269-.252-2.438h-2.521c-.954-.055-1.26-.475-.924-1.26.277-.506.727-1.232 1.345-2.186a75.978 75.978 0 0 1 1.597-3.025c.223-.448.14-.646-.252-.59h-2.941c-.393 0-.588-.168-.588-.504-.057-.225.138-.393.588-.504h3.193c1.063.057 1.398.616 1.01 1.68a176.488 176.488 0 0 1-2.857 4.877c-.169.447-.084.645.252.588h1.934c.223-.057.531 0 .925.168.278.168.475.673.588 1.514 0 .784-.168 1.766-.504 2.941-.282 1.177-.729 2.381-1.345 3.613 1.063 1.121 2.406 1.934 4.033 2.438 1.625.504 3.166.756 4.623.756h6.053c.386.001.612.139.668.423zm-8.068-3.868h-5.379c-.395 0-.59-.141-.59-.42-.057-.225.14-.393.59-.504h5.379v-2.522h-4.707c-.45 0-.646-.14-.589-.421-.058-.336.139-.504.589-.504h4.707v-2.354h-4.37c-.451 0-.646-.168-.589-.505-.059-.224.138-.392.589-.504h4.37v-2.271h-5.043c-.45 0-.646-.168-.589-.504-.058-.224.139-.392.589-.504h5.043v-2.438h-4.37c-.451 0-.646-.168-.589-.504-.059-.225.138-.393.589-.504h4.37v-1.01c0-.393.138-.615.42-.672.223.057.391.279.504.672v1.01h3.278c1.063.111 1.625.729 1.682 1.849v1.599h1.513c.391.111.615.279.674.504-.059.279-.283.448-.674.504h-1.513v1.43c0 1.289-.646 1.904-1.934 1.849h-3.026v2.354h5.212c.392 0 .589.168.589.504 0 .279-.197.42-.589.42h-5.212v2.521h5.969c.391.057.588.226.588.504 0 .28-.197.42-.588.42h-5.969v1.935c-.057.446-.225.672-.504.672-.282 0-.42-.196-.42-.588v-2.018zm4.959-12.776c-.059-.337-.282-.56-.672-.673h-3.363v2.438h4.035V93.62zm0 4.371v-1.599h-4.035v2.271h3.363c.336 0 .558-.224.672-.672zM288.275 90.678a1.119 1.119 0 0 1 1.177 0c1.063 1.122 2.323 2.159 3.782 3.11 1.345.953 2.996 1.821 4.957 2.604.394.227.562.479.506.758-.057.279-.28.394-.674.336a22.278 22.278 0 0 1-4.873-2.521c-1.514-1.009-2.746-1.988-3.698-2.941-.449-.336-.785-.392-1.009-.168a60.213 60.213 0 0 1-3.698 3.026 30.922 30.922 0 0 1-4.791 2.856c-.504.168-.813.113-.924-.168-.113-.223.055-.477.504-.756 3.698-1.904 6.612-3.951 8.741-6.136zm9.916 19.081c0 .278-.195.446-.588.505h-17.229c-.448 0-.644-.168-.588-.505-.056-.337.14-.505.588-.505h7.985v-5.127h-6.725c-.449 0-.645-.141-.589-.42-.056-.337.14-.505.589-.505h6.725v-4.791h-5.801c-.449 0-.644-.14-.588-.42-.056-.226.139-.394.588-.505h12.859c.393.058.589.226.589.505 0 .28-.196.42-.589.42h-6.135v4.791h7.061c.391 0 .588.168.588.505 0 .279-.197.42-.588.42h-7.061v5.127h8.32c.394 0 .589.168.589.505zM305.993 92.443v6.304h2.187c.336 0 .53.168.588.505-.058.279-.252.42-.588.42h-2.187v6.641c.505-.393 1.147-.84 1.934-1.346.392-.223.673-.223.841 0 .168.28.084.563-.252.842-1.793 1.346-3.812 2.633-6.053 3.865-.447.168-.729.111-.84-.168s.027-.563.42-.841c.841-.392 1.821-.979 2.941-1.765v-7.229h-2.354c-.394 0-.588-.14-.588-.42 0-.337.194-.505.588-.505h2.354v-6.305h-2.354c-.394 0-.588-.168-.588-.504 0-.224.194-.393.588-.504h5.884c.394.111.59.28.59.504 0 .28-.196.449-.59.504h-2.521v.002zm6.893 9.918c.224.168.224.505 0 1.009-1.177 1.849-2.688 3.644-4.538 5.38-.395.277-.673.309-.841.083-.168-.28-.085-.614.252-1.009 1.736-1.568 3.165-3.277 4.286-5.127.279-.39.559-.504.841-.336zm4.034 1.766c-1.009-1.736-1.766-3.334-2.27-4.792v9.498c-.058 1.063-.532 1.625-1.43 1.683a8.134 8.134 0 0 1-2.604-.252c-.562-.281-.757-.563-.589-.842.057-.281.337-.363.841-.253a8.569 8.569 0 0 0 1.935.421c.559.057.896-.141 1.008-.589V94.713h-5.043c-.449 0-.646-.168-.588-.504-.059-.225.139-.393.588-.505h5.043v-3.026c0-.391.141-.588.42-.588.225 0 .363.197.42.588v3.026h5.801c.336.112.531.28.589.505-.058.279-.253.447-.589.504h-5.801v1.85c1.515 4.765 3.587 8.519 6.221 11.263.337.448.42.813.252 1.094-.168.336-.447.308-.841-.085a23.84 23.84 0 0 1-3.363-4.708zm-7.816-8.152c.168-.168.393-.084.674.252.223.504.529 1.205.924 2.102.336.84.673 1.709 1.009 2.605.11.562.026.869-.253.924-.279.113-.504-.084-.672-.588a35.195 35.195 0 0 0-1.766-4.455c-.226-.393-.198-.672.084-.84zm6.724-5.379c.109-.279.391-.309.84-.086a20.108 20.108 0 0 1 2.773 1.85c.224.281.279.533.168.757-.168.28-.42.31-.758.085a34.565 34.565 0 0 1-2.604-1.85c-.393-.225-.532-.477-.419-.756zm4.285 5.463c.225.168.225.504 0 1.008-.84 1.289-1.709 2.41-2.605 3.363-.447.393-.729.447-.84.168-.227-.168-.168-.477.168-.926.84-.896 1.682-2.018 2.521-3.361.336-.392.588-.477.756-.252zM337.58 101.857c-.281-.447-.311-.813-.084-1.094.224-.168.504-.056.84.338a166.241 166.241 0 0 1 4.875 8.907c.168.392.141.699-.083.925-.28.111-.533-.027-.758-.42a23.79 23.79 0 0 0-1.009-1.85c-5.604.561-10.618.896-15.045 1.009-.616 0-.98-.196-1.092-.588-.113-.448 0-.866.336-1.263a537.018 537.018 0 0 0 3.529-4.705 110.218 110.218 0 0 0 3.025-4.455h-7.145c-.449-.057-.646-.225-.589-.504-.057-.336.14-.504.589-.504h18.155c.392 0 .588.168.588.504 0 .279-.196.447-.588.504h-9.835a217.383 217.383 0 0 1-3.109 4.623 810.936 810.936 0 0 0-3.529 4.623c-.28.393-.142.645.42.756a770.22 770.22 0 0 0 7.313-.336 85.579 85.579 0 0 0 6.641-.588 213.74 213.74 0 0 1-3.445-5.882zm3.865-10.757c.393.057.589.196.589.42 0 .28-.196.448-.589.504h-14.709c-.393 0-.588-.168-.588-.504 0-.224.195-.363.588-.42h14.709zM363.367 109.842c.729.057 1.119-.279 1.177-1.009V98.159c-.058-.337-.28-.532-.673-.589h-14.624c-.396.113-.617.365-.673.757v11.347c-.059.393-.196.59-.422.59-.279 0-.447-.197-.504-.59V97.991c.057-.729.477-1.177 1.263-1.345h4.538l-1.346-3.194c-.058-.056-.027-.14.084-.252h-4.371c-.447-.056-.645-.195-.588-.421-.057-.225.141-.393.588-.504h8.406l-.59-1.262c-.168-.392-.111-.673.168-.841.338-.11.59.029.758.421l.672 1.682h8.322c.336.058.53.226.588.504-.058.226-.252.365-.588.421h-4.203c.11.112.14.225.084.336-.112.28-.311.729-.588 1.346a58.253 58.253 0 0 1-.842 1.765h4.202c.729.111 1.149.562 1.261 1.346v10.842c-.057 1.178-.588 1.82-1.597 1.934-.952.057-1.989-.111-3.108-.504-.449-.281-.617-.563-.506-.841.111-.28.393-.364.842-.253a8.197 8.197 0 0 0 2.27.671zm-9.077-11.347c.392-.224.672-.279.841-.168.168.28.139.562-.085.84-1.009 1.122-2.55 2.327-4.623 3.614-.504.226-.813.168-.924-.168-.112-.225.056-.504.504-.842a23.407 23.407 0 0 0 4.287-3.276zm7.312 5.548v2.605c-.111.84-.561 1.316-1.345 1.429h-7.396c-.784-.111-1.233-.589-1.344-1.429v-2.605c.109-.784.56-1.232 1.344-1.346h7.395c.728.114 1.178.562 1.346 1.346zm-8.407-.505c-.447.058-.699.28-.756.673v2.186c.057.449.309.701.756.758h6.81c.337 0 .56-.254.673-.758v-2.102c-.113-.505-.336-.757-.673-.757h-6.81zm6.894-10.338l-7.313-.085c.057 0 .195.085.42.253.338.952.759 2.046 1.263 3.278h4.454c.673-1.347 1.148-2.41 1.43-3.194.053-.169-.03-.252-.254-.252zm3.194 8.739c.224.396.277.701.168.927-.168.225-.422.196-.758-.085-1.68-1.512-3.053-2.688-4.117-3.529-.336-.337-.42-.645-.252-.925.111-.224.392-.195.841.084 1.177.841 2.548 2.019 4.118 3.528zM370.325 110.6c-.449-.113-.646-.281-.589-.504-.057-.337.14-.506.589-.506h6.052V90.932c0-.394.168-.615.504-.673.225.058.393.279.506.673v18.658h4.369V90.932c0-.394.141-.615.421-.673.224.058.392.279.505.673v18.658h5.631c.392 0 .588.169.588.506 0 .223-.196.391-.588.504h-17.988zm.673-17.317c.223-.055.447.113.672.505.447 1.794.98 3.728 1.598 5.8.504 2.13.979 4.23 1.428 6.305.058.504-.057.756-.336.756-.279.058-.447-.14-.504-.588a309.038 309.038 0 0 0-3.024-11.937c-.171-.446-.115-.728.166-.841zm13.363 13.449c-.28-.111-.336-.42-.168-.926a100.05 100.05 0 0 0 3.445-11.935c.111-.448.309-.673.588-.673.279.111.394.393.336.841-.84 3.923-2.017 7.983-3.528 12.187-.223.506-.449.674-.673.506z"/><circle fill="#333" cx="224.229" cy="99.378" r="2.614"/><path fill="#333" d="M130.142 75.27h261.397v1.153H130.142z"/></svg>