<?xml version="1.0" encoding="utf-8"?>
<!-- Generator: Adobe Illustrator 16.0.0, SVG Export Plug-In . SVG Version: 6.00 Build 0)  -->
<!DOCTYPE svg PUBLIC "-//W3C//DTD SVG 1.1//EN" "http://www.w3.org/Graphics/SVG/1.1/DTD/svg11.dtd">
<svg version="1.1" id="横版单英" xmlns="http://www.w3.org/2000/svg" xmlns:xlink="http://www.w3.org/1999/xlink" x="0px"
	 y="0px" width="502px" height="128px" viewBox="0 0 502 128" enable-background="new 0 0 502 128" xml:space="preserve">
<g>
	<linearGradient id="SVGID_1_" gradientUnits="userSpaceOnUse" x1="58.5947" y1="1.8184" x2="58.5947" y2="126.1821">
		<stop  offset="0.1" style="stop-color:#52E5E7"/>
		<stop  offset="0.9" style="stop-color:#130CB7"/>
	</linearGradient>
	<path fill="url(#SVGID_1_)" d="M58.596,112.915l56.593-32.67v5.881c0,5.746-4.073,12.806-9.054,15.679L67.65,124.027
		c-4.98,2.873-13.13,2.873-18.11,0l-38.483-22.223C6.077,98.932,2,91.872,2,86.126v-5.881L58.596,112.915z M106.136,26.004
		L67.65,3.785c-1.768-1.021-3.938-1.673-6.226-1.967v14.709l39.618,22.874L61.424,62.272v16.337l53.765-31.04v-5.881
		C115.189,35.937,111.116,28.88,106.136,26.004z M55.766,78.609L2,47.569v-5.881c0-5.752,4.077-12.809,9.057-15.685L49.54,3.785
		c1.771-1.021,3.941-1.673,6.226-1.967v14.718L16.16,39.41l39.606,22.855V78.609z M61.424,85.156l53.765-31.042v6.663L61.424,91.764
		V85.156z M61.424,98.115l53.765-30.984v6.55L61.424,104.72V98.115z"/>
	<g>
		<path fill="#333333" d="M272.606,101.006c0,2.017-1.623,3.647-3.629,3.647c-2.01,0-3.632-1.631-3.632-3.647
			s1.622-3.647,3.632-3.647C270.983,97.358,272.606,98.989,272.606,101.006z"/>
		<g>
			<path fill="#333333" d="M243.779,39.953c-0.188-0.188-0.393-0.412-0.614-0.662c-0.221-0.256-0.49-0.541-0.802-0.858
				c-0.634-0.635-1.482-1.208-2.557-1.709c-1.074-0.506-2.62-0.762-4.641-0.762c-4.418,0-7.779,1.55-10.086,4.66
				c-2.301,3.106-3.453,6.534-3.453,10.27c0,0.064,0,0.112,0,0.144c0,0.03,0,0.083,0,0.142c0.064,3.297,1.229,6.309,3.504,9.039
				c2.27,2.726,5.617,4.091,10.035,4.091c4.608,0,7.717-1.1,9.329-3.285c1.61-2.186,2.915-5.244,3.927-9.18
				c0-0.059,0.015-0.11,0.046-0.141c0.035-0.03,0.049-0.077,0.049-0.145l7.479,0.575v1.807c0,0.949-0.106,1.932-0.334,2.947
				c-0.218,1.014-0.55,2.029-0.99,3.038c-1.327,2.921-3.614,5.585-6.863,7.992c-3.253,2.411-7.468,3.616-12.644,3.616
				c-6.125,0-11.236-1.933-15.339-5.802c-4.104-3.872-6.155-8.811-6.155-14.838c0-6.529,1.737-11.538,5.208-15.021
				c3.47-3.492,7.261-5.714,11.363-6.665c0.882-0.191,1.72-0.333,2.508-0.428c0.791-0.097,1.591-0.14,2.415-0.14
				c4.672,0,8.682,1.3,12.024,3.898c3.347,2.601,6.06,5.769,8.143,9.511l-28.407,15.408l-3.313-5.994L243.779,39.953z"/>
			<path fill="#333333" d="M270.858,10.946v38.516c0,4.379,1.123,7.951,3.366,10.708c2.233,2.752,5.412,4.137,9.513,4.137
				c3.664,0,6.551-1.064,8.667-3.192c2.114-2.119,3.486-4.454,4.117-6.987c0.187-0.692,0.331-1.364,0.427-1.997
				c0.095-0.635,0.141-1.273,0.141-1.904c0-4.563-1.135-7.972-3.408-10.223c-2.272-2.252-4.762-3.57-7.479-3.946
				c-0.32,0-0.616-0.018-0.897-0.051c-0.287-0.033-0.586-0.045-0.899-0.045c-1.77,0-3.305,0.233-4.594,0.71
				c-1.293,0.477-2.545,0.999-3.74,1.567c-0.064,0-0.129,0.019-0.188,0.049c-0.067,0.035-0.127,0.045-0.189,0.045
				c-0.382,0.19-0.744,0.37-1.091,0.524c-0.349,0.164-0.711,0.334-1.09,0.528V31.87c1.197-0.699,2.429-1.267,3.691-1.714
				c1.266-0.44,2.523-0.79,3.79-1.041c0.693-0.063,1.354-0.126,1.986-0.194c0.631-0.063,1.264-0.095,1.896-0.095
				c5.238,0,9.944,1.794,14.107,5.372c4.166,3.584,6.252,8.423,6.252,14.507c0,5.77-1.833,11.018-5.491,15.744
				c-3.664,4.721-8.998,7.083-16.007,7.083c-7.064,0-12.308-2.269-15.718-6.801c-3.404-4.534-5.112-9.875-5.112-16.026V10.946
				H270.858z"/>
			<path fill="#333333" d="M330.657,63.142c0.093,0,0.173,0,0.232,0c1.266-0.058,2.417-0.315,3.46-0.757
				c1.044-0.444,1.561-1.371,1.561-2.769c0-1.65-0.864-2.921-2.604-3.813c-1.734-0.887-3.992-1.715-6.768-2.474
				c-0.635-0.192-1.298-0.386-1.991-0.574c-0.692-0.189-1.42-0.386-2.178-0.574c-3.659-1.015-6.563-2.475-8.71-4.384
				c-2.148-1.902-3.225-4.511-3.225-7.815c0-4.704,1.769-7.277,4.739-8.916c3.366-1.86,6.912-1.86,11.268-1.86h15.436v6.665h-16.1
				c-2.02,0.057-3.755,0.312-5.205,0.756c-1.454,0.443-2.182,1.362-2.182,2.761c0,1.583,0.761,2.756,2.274,3.517
				c1.516,0.76,11.206,3.582,11.457,3.708c4.357,1.649,7.399,3.443,9.141,5.374c1.734,1.935,2.602,4.488,2.602,7.657
				c-0.19,3.617-1.216,6.171-3.076,7.656c-1.863,1.489-3.898,2.427-6.108,2.809c-0.759,0.121-1.515,0.205-2.271,0.235
				c-0.763,0.034-1.486,0.046-2.18,0.046c-0.064,0-19.795,0-19.795,0v-7.246C310.436,63.142,330.563,63.142,330.657,63.142z"/>
			<path fill="#333333" d="M399.823,25.688c0-4.185,0.865-7.307,2.604-9.371c1.731-2.056,3.615-3.469,5.636-4.226
				c1.072-0.445,2.116-0.731,3.123-0.859c1.007-0.126,1.894-0.191,2.648-0.191l6.823-0.095v7.325h-5.493
				c-3.222,0.063-5.339,0.9-6.348,2.517c-1.006,1.619-1.575,3.374-1.704,5.281c-0.065,0.314-0.09,0.632-0.09,0.946
				c0,0.323,0,0.64,0,0.957c0,0.124,0,0.251,0,0.379c0,0.128,0.024,0.223,0.09,0.287c0,0.062,0,0.126,0,0.188
				c0,0.061,0,0.128,0,0.188c0,0.191,0.017,0.367,0.047,0.526c0.036,0.156,0.048,0.305,0.048,0.427l12.12-0.094v7.322h-12.12v33.004
				h-7.384V25.688z"/>
			<path fill="#333333" d="M213.108,11.223h-4.287h-4.288l-10.634,47.026c-0.188,0.787-0.337,1.558-0.458,2.321
				c-0.11,0.675-0.17,1.155-0.175,1.465c-0.014-0.352-0.08-0.864-0.197-1.549c-0.132-0.757-0.307-1.499-0.519-2.237l-11.132-42.288
				c-0.043-0.215-0.105-0.43-0.169-0.644l-0.136-0.516h-0.054c-0.9-2.108-2.966-3.588-5.372-3.588c-2.407,0-4.477,1.48-5.376,3.588
				h-0.06l-0.154,0.579c-0.004,0.019-0.006,0.03-0.01,0.042l-11.359,43.074c-0.186,0.706-0.344,1.425-0.481,2.157
				c-0.123,0.678-0.185,1.188-0.198,1.545c-0.005-0.305-0.062-0.781-0.174-1.443c-0.12-0.723-0.277-1.473-0.458-2.258
				l-10.504-47.274h-4.327H138.3l14.399,55.822h0.017c0.708,2.305,2.815,3.976,5.319,3.976c2.502,0,4.613-1.671,5.317-3.976h0.02
				l11.415-42.274c0.215-0.759,0.39-1.512,0.521-2.259c0.134-0.747,0.202-1.291,0.202-1.646h0.011c0,0.295,0.081,0.826,0.244,1.583
				c0.16,0.763,0.345,1.533,0.557,2.321l11.688,42.274h0.032c0.709,2.305,2.815,3.976,5.321,3.976c2.497,0,4.606-1.671,5.321-3.976
				h0.021L213.108,11.223z"/>
			<path fill="#333333" d="M391.681,49.417c0,11.737-9.477,21.259-21.16,21.259c-11.692,0-21.164-9.522-21.164-21.259
				c0-11.736,9.472-21.258,21.164-21.258C382.204,28.159,391.681,37.68,391.681,49.417z M370.521,35.262
				c-7.784,0-14.097,6.34-14.097,14.155c0,7.82,6.313,14.158,14.097,14.158c7.781,0,14.087-6.337,14.087-14.158
				C384.607,41.602,378.302,35.262,370.521,35.262z"/>
			<path fill="#333333" d="M501.926,31.537c0-11.739-9.475-21.256-21.165-21.256c-11.688,0-21.159,9.517-21.159,21.256
				c0,11.24,8.687,20.439,19.686,21.203l5.086-7.518c-1.153,0.308-2.36,0.472-3.612,0.472c-7.781,0-14.091-6.337-14.091-14.158
				c0-7.819,6.31-14.155,14.091-14.155c7.783,0,14.096,6.336,14.096,14.155c0,3.068-0.975,5.905-2.623,8.223l0,0l-8.322,12.798
				l-12.302,17.65h8.021l18.097-25.961c0.237-0.318,0.463-0.644,0.681-0.976l0.096-0.138h-0.005
				C500.658,39.797,501.926,35.82,501.926,31.537z"/>
			<path fill="#333333" d="M448.68,29.205h-15.527V19.029h-7.957V56.79v0.095c0,0.08,0.01,0.613,0.012,1.065
				c0,0.092-0.012,0.176-0.012,0.269c0,6.723,5.428,12.169,12.127,12.169l0,0c0.057,0,10.695,0,10.695,0v-7.414h-9.472
				c-0.06,0-0.117-0.005-0.177-0.005c-0.114,0.009-0.234,0.019-0.355,0.019c-0.255,0-0.501-0.03-0.75-0.069
				c-0.038-0.005-0.08-0.005-0.122-0.005c-0.156-0.018-0.311-0.063-0.467-0.125c-1.749-0.504-3.092-1.97-3.427-3.794l0,0
				c0,0,0-0.008-0.001-0.016c-0.05-0.28-0.078-0.567-0.078-0.864c0-0.04,0.007-0.073,0.007-0.119
				c-0.005-0.041-0.007-0.091-0.007-0.128V46.79c-0.006,0.005-0.012,0.01-0.017,0.01V36.533h15.527V29.205z"/>
		</g>
		<path fill="#333333" d="M146.16,85.423v3.292h-3.418V88.69c-0.773-0.135-1.365-0.806-1.365-1.618c0-0.818,0.591-1.49,1.365-1.621
			v-0.028H146.16L146.16,85.423z M142.738,99.32v0.022c-0.77,0.132-1.361,0.808-1.361,1.623c0,0.809,0.591,1.483,1.361,1.617v0.024
			h3.422V99.32H142.738z M142.738,112.929v0.021c-0.77,0.137-1.361,0.81-1.361,1.626c0,0.813,0.591,1.483,1.361,1.615v0.03h3.422
			v-3.293H142.738L142.738,112.929z M173.702,116.586c-0.822,0-1.523-0.604-1.655-1.413h-0.026v-4.249l3.362-3.377v7.626h-0.026
			C175.223,115.981,174.521,116.586,173.702,116.586z M165.338,116.586c-0.928,0-1.678-0.758-1.678-1.683
			c0-0.086,0.007-0.178,0.018-0.267h-0.018v-7.032l3.357,0.005v7.027h-0.02c0.013,0.089,0.02,0.179,0.02,0.267
			C167.017,115.828,166.264,116.586,165.338,116.586z M156.973,116.586c-0.813,0-1.525-0.604-1.657-1.413h-0.022v-4.249l3.361-3.377
			v7.626h-0.026C158.495,115.981,157.793,116.586,156.973,116.586z M150.524,116.586c-0.925,0-1.68-0.758-1.68-1.688V85.423h27.15
			c0.926,0,1.68,0.76,1.68,1.691c0,0.929-0.753,1.685-1.68,1.685h-23.789v26.104C152.206,115.828,151.451,116.586,150.524,116.586z
			 M175.945,93.083c0-0.851-0.634-1.564-1.465-1.672v-0.008h-16.787v-2.487l-3.345,3.36l-0.017,0.014v13.578h18.312l3.285-3.297
			l-0.029-0.032h0.046V93.083z M172.587,100.71l-1.779,1.783h-13.115v-7.716h14.894V100.71z M167.917,100.322h-7.412v-3.376h7.456
			v0.01c0.047-0.006,0.087-0.01,0.131-0.01c0.925,0,1.679,0.758,1.679,1.692c0,0.928-0.754,1.684-1.679,1.684
			c-0.046,0-0.097-0.005-0.146-0.005L167.917,100.322z"/>
		<path fill="#333333" d="M253.186,116.586c-0.062,0-0.121-0.003-0.193-0.008l-0.006,0.008h-24.906v-0.021
			c-0.806-0.138-1.403-0.843-1.403-1.662v-8.912l3.355-3.372v10.593h21.476v-1.95l3.357-3.375v6.994c0,0.006,0,0.01,0,0.017
			C254.865,115.828,254.111,116.586,253.186,116.586z M254.034,101.747c-0.012,0-0.02,0-0.025,0h-0.019h-28.721v-3.371h28.763
			c0.002,0,0.002,0,0.002,0c0.925,0,1.679,0.757,1.679,1.686C255.713,100.989,254.959,101.747,254.034,101.747z M254.034,91.649
			h-27.357v-3.374h27.357c0.925,0,1.679,0.754,1.679,1.686C255.713,90.895,254.959,91.649,254.034,91.649z"/>
		<path fill="#333333" d="M214.901,113.212h-11.481v-8.638h10.629l0.281-0.039c0.764-0.171,1.314-0.854,1.314-1.645
			c0-0.795-0.55-1.481-1.314-1.651l-0.281-0.04h-10.629V94.21h10.629l0.281-0.041c0.764-0.175,1.314-0.857,1.314-1.646
			s-0.55-1.477-1.314-1.645l-0.281-0.044h-10.629v-5.395h-3.359v5.395h-10.272v-2.559h-3.357v16.502h0.019
			c-0.013,0.086-0.019,0.17-0.019,0.254c0,0.929,0.751,1.686,1.678,1.686c0.929,0,1.679-0.754,1.679-1.686
			c0-0.084-0.008-0.168-0.021-0.254h0.021v-0.203h10.272v8.638h-13.688v3.374h28.489h0.012c0.009,0,0.009,0,0.012,0
			c0.933,0,1.688-0.758,1.688-1.683C216.573,113.976,215.825,113.224,214.901,113.212z M200.06,101.199h-10.272V94.21h10.272
			V101.199z"/>
		<g>
			<path fill="#333333" d="M291.613,102.485c-0.352,0.274-0.721,0.176-1.109-0.294c-0.233-0.234-0.856-1.525-1.867-3.869v16.886
				c-0.078,0.469-0.352,0.703-0.816,0.703c-0.469,0-0.701-0.234-0.701-0.703V99.025c-0.467,1.877-0.935,3.519-1.4,4.926
				c-0.469,1.407-1.091,2.737-1.869,3.987c-0.39,0.468-0.759,0.586-1.107,0.352c-0.352-0.235-0.371-0.665-0.061-1.29
				c0.778-1.642,1.536-3.46,2.278-5.453c0.738-1.993,1.342-4.005,1.808-6.039h-3.502c-0.466,0-0.698-0.235-0.698-0.703
				c0-0.469,0.232-0.742,0.698-0.822h3.854v-5.863c0-0.545,0.232-0.82,0.701-0.82c0.465,0,0.738,0.275,0.816,0.82v5.863h2.8
				c0.468,0.08,0.702,0.354,0.702,0.822c0,0.468-0.234,0.703-0.702,0.703h-2.8v1.057c0.466,0.703,1.011,1.465,1.634,2.286
				c0.622,0.82,1.127,1.583,1.519,2.285C292.021,101.762,291.963,102.212,291.613,102.485z M300.076,113.742
				c0.155-0.51,0.545-0.685,1.168-0.529c0.932,0.392,2.061,0.665,3.385,0.822c1.557-0.234,2.489-1.759,2.801-4.574
				c0.312-2.813,0.469-5.704,0.469-8.675v-6.567c-0.079-0.625-0.391-0.977-0.935-1.057h-11.557c-0.623,1.8-1.559,3.56-2.802,5.277
				c-0.467,0.469-0.876,0.586-1.226,0.352c-0.351-0.234-0.371-0.663-0.059-1.289c2.022-2.971,3.344-6.215,3.969-9.733
				c0.155-0.47,0.465-0.662,0.935-0.586c0.467,0.079,0.699,0.392,0.699,0.937c-0.155,0.783-0.428,1.919-0.816,3.401h11.673
				c0.936,0.234,1.479,0.82,1.635,1.76v7.506c0,4.923-0.291,8.617-0.875,11.08c-0.583,2.463-1.889,3.732-3.911,3.811
				c-1.401,0-2.684-0.234-3.853-0.703C300.153,114.66,299.92,114.249,300.076,113.742z M298.793,107.47
				c1.868-0.157,3.54-0.392,5.019-0.704c-1.012-2.346-1.791-4.104-2.333-5.277c-0.234-0.702-0.119-1.172,0.349-1.407
				s0.855-0.077,1.168,0.469c1.243,2.581,2.334,5.159,3.268,7.74c0.155,0.782,0,1.271-0.466,1.465
				c-0.468,0.196-0.818-0.019-1.051-0.644l-0.351-0.705c-1.792,0.313-3.717,0.548-5.778,0.705c-2.063,0.157-3.679,0.195-4.844,0.116
				c-1.247-0.077-1.635-0.703-1.168-1.876c0.856-1.877,1.77-3.888,2.742-6.039c0.973-2.149,1.85-4.24,2.628-6.273
				c0.31-0.469,0.699-0.604,1.168-0.41c0.466,0.196,0.621,0.606,0.466,1.23c-1.324,3.284-2.959,6.959-4.902,11.023
				c-0.391,0.469-0.313,0.703,0.231,0.703C295.641,107.666,296.924,107.625,298.793,107.47z"/>
			<path fill="#333333" d="M339.86,114.27c0.466,0,0.699,0.253,0.699,0.763c0,0.507-0.233,0.8-0.699,0.879h-7.939
				c-5.759,0-10-1.524-12.724-4.573c-0.546,0.704-1.129,1.467-1.75,2.287c-0.625,0.82-1.285,1.504-1.984,2.052
				c-0.623,0.313-1.052,0.313-1.285,0c-0.232-0.314-0.157-0.665,0.233-1.055c1.478-1.485,2.723-2.972,3.735-4.457
				c-1.324-2.187-2.295-4.768-2.918-7.738c-0.079-0.545,0.097-0.88,0.523-0.998c0.428-0.116,0.76,0.06,0.995,0.528
				c0.154,1.018,0.408,2.131,0.758,3.343c0.35,1.213,0.876,2.325,1.576,3.342c0.622-1.642,1.09-3.401,1.4-5.277
				s0.234-2.891-0.234-3.048h-3.735c-1.167-0.157-1.517-0.743-1.049-1.76c0.543-0.779,1.226-1.835,2.042-3.165
				c0.817-1.329,1.535-2.58,2.159-3.753c0.234-0.704,0.117-1.055-0.35-1.055h-3.735c-0.544,0-0.817-0.253-0.817-0.763
				c0-0.508,0.273-0.802,0.817-0.88h4.787c0.465,0,0.875,0.157,1.224,0.469c0.352,0.313,0.368,0.9,0.059,1.761
				c-1.091,2.032-2.451,4.299-4.085,6.8c-0.313,0.469-0.235,0.704,0.233,0.704h2.685c1.244-0.077,1.828,0.548,1.751,1.875
				c0,2.659-0.739,5.787-2.219,9.382c1.556,1.642,3.347,2.772,5.371,3.401c2.022,0.624,4.124,0.937,6.304,0.937H339.86z
				 M330.288,112.746c-0.469,0-0.701-0.235-0.701-0.704v-2.228h-6.304c-0.467,0-0.702-0.235-0.702-0.703
				c0-0.47,0.235-0.742,0.702-0.821h6.304v-3.05H323.4c-0.468,0-0.7-0.252-0.7-0.761c0-0.508,0.232-0.802,0.7-0.882h6.187v-2.932
				h-5.719c-0.547,0-0.818-0.251-0.818-0.76s0.271-0.802,0.818-0.881h5.719v-2.813h-6.654c-0.466,0-0.7-0.234-0.7-0.704
				c0-0.469,0.234-0.742,0.7-0.821h6.654v-3.166h-5.719c-0.547,0-0.818-0.253-0.818-0.762c0-0.508,0.271-0.801,0.818-0.88h5.719
				v-1.29c0-0.546,0.232-0.82,0.701-0.82c0.466,0,0.737,0.274,0.816,0.82v1.29h4.67c1.323,0.159,2.062,0.979,2.218,2.462v2.346
				h1.868c0.466,0.079,0.699,0.353,0.699,0.821c0,0.47-0.233,0.704-0.699,0.704h-1.868v2.11c-0.078,1.486-0.935,2.268-2.568,2.344
				h-4.319v2.932h7.237c0.468,0.08,0.7,0.374,0.7,0.882c0,0.509-0.232,0.761-0.7,0.761h-7.237v3.05h7.938
				c0.468,0.079,0.701,0.352,0.701,0.821c0,0.468-0.233,0.703-0.701,0.703h-7.938v1.992
				C331.025,112.433,330.754,112.746,330.288,112.746z M336.475,94.687V92.46c-0.078-0.546-0.43-0.86-1.051-0.939h-4.319v3.166
				H336.475z M335.424,99.025c0.621-0.075,0.973-0.39,1.051-0.938v-1.876h-5.37v2.813H335.424z"/>
			<path fill="#333333" d="M345.673,97.734c-0.155-0.467,0-0.896,0.469-1.288c2.567-1.327,4.785-2.697,6.654-4.105
				c1.865-1.406,3.656-2.969,5.368-4.688c0.387-0.391,0.895-0.354,1.519,0.116c1.477,1.642,3.17,3.148,5.077,4.515
				c1.906,1.369,4.183,2.563,6.828,3.576c0.623,0.393,0.857,0.842,0.702,1.349c-0.158,0.51-0.545,0.646-1.166,0.41
				c-2.336-0.858-4.495-1.992-6.48-3.399s-3.719-2.814-5.194-4.222c-0.391-0.313-0.779-0.273-1.168,0.117
				c-1.4,1.33-3.094,2.697-5.078,4.104s-4.068,2.695-6.245,3.869C346.256,98.322,345.828,98.204,345.673,97.734z M370.188,113.566
				c0.467,0,0.7,0.254,0.7,0.763c0,0.507-0.233,0.8-0.7,0.879h-22.881c-0.545-0.079-0.817-0.372-0.817-0.879
				c0-0.509,0.272-0.763,0.817-0.763h10.156v-6.684h-8.404c-0.469,0-0.701-0.253-0.701-0.763c0-0.507,0.232-0.8,0.701-0.88h8.404
				v-6.215h-6.537c-0.546,0-0.817-0.253-0.817-0.762c0-0.508,0.271-0.801,0.817-0.88h15.177c0.466,0.079,0.699,0.372,0.699,0.88
				c0,0.509-0.233,0.762-0.699,0.762h-7.005v6.215h8.638c0.469,0.08,0.701,0.373,0.701,0.88c0,0.51-0.232,0.763-0.701,0.763h-8.638
				v6.684H370.188z"/>
			<path fill="#333333" d="M386.857,90.056c0,0.509-0.273,0.763-0.818,0.763h-3.268v8.325h2.802c0.466,0.079,0.701,0.352,0.701,0.82
				c0,0.47-0.235,0.702-0.701,0.702h-2.802v8.679c0.778-0.469,1.595-1.055,2.451-1.759c0.542-0.311,0.974-0.253,1.284,0.176
				c0.312,0.431,0.233,0.88-0.232,1.35c-2.414,1.875-5.137,3.635-8.171,5.275c-0.702,0.155-1.132-0.02-1.286-0.527
				c-0.155-0.509,0-0.88,0.47-1.113c1.321-0.704,2.645-1.485,3.967-2.345v-9.735h-3.034c-0.546,0-0.818-0.232-0.818-0.702
				c0-0.469,0.272-0.741,0.818-0.82h3.034v-8.325h-3.034c-0.546,0-0.818-0.254-0.818-0.763c0-0.508,0.272-0.8,0.818-0.88h7.819
				C386.584,89.256,386.857,89.548,386.857,90.056z M390.826,105.123c0.39-0.625,0.797-0.78,1.227-0.469
				c0.428,0.313,0.485,0.782,0.175,1.407c-1.634,2.58-3.696,5.042-6.188,7.388c-0.544,0.391-0.971,0.371-1.282-0.059
				c-0.312-0.432-0.195-0.88,0.351-1.349C387.363,109.854,389.268,107.547,390.826,105.123z M403.201,113.801
				c-0.313,0.39-0.7,0.353-1.168-0.117c-3.426-3.752-5.877-7.895-7.354-12.43v12.313c-0.158,1.563-0.857,2.403-2.102,2.521
				c-1.245,0.118-2.53-0.059-3.854-0.527c-0.623-0.313-0.837-0.724-0.642-1.23c0.194-0.509,0.602-0.646,1.226-0.411
				c0.856,0.312,1.693,0.508,2.51,0.587c0.818,0.076,1.265-0.235,1.343-0.938V93.632h-6.654c-0.545,0-0.816-0.253-0.816-0.762
				c0-0.508,0.271-0.801,0.816-0.879h6.654v-3.752c0-0.471,0.233-0.705,0.702-0.705c0.466,0,0.736,0.234,0.816,0.705v3.752h7.119
				c0.469,0.078,0.702,0.371,0.702,0.879c0,0.509-0.233,0.762-0.702,0.762h-7.119v1.407c1.089,6.332,3.928,12.157,8.521,17.472
				C403.511,112.979,403.511,113.409,403.201,113.801z M386.507,96.094c-0.232-0.546-0.137-0.938,0.292-1.171
				c0.429-0.236,0.877-0.118,1.343,0.35c0.856,1.8,1.711,4.066,2.569,6.803c0.075,0.627-0.117,0.996-0.585,1.113
				s-0.817-0.137-1.05-0.762C388.451,100.316,387.598,98.204,386.507,96.094z M396.196,89.059c-0.545-0.234-0.7-0.565-0.467-0.997
				c0.234-0.429,0.661-0.566,1.284-0.409c1.401,0.703,2.645,1.406,3.735,2.11c0.467,0.468,0.603,0.919,0.409,1.348
				c-0.195,0.431-0.604,0.451-1.226,0.061C398.687,90.544,397.439,89.842,396.196,89.059z M400.517,96.094
				c0.389-0.468,0.776-0.565,1.167-0.292c0.389,0.274,0.466,0.724,0.233,1.349c-1.091,1.563-2.179,2.971-3.268,4.221
				c-0.626,0.469-1.09,0.527-1.402,0.176c-0.311-0.352-0.273-0.761,0.117-1.23C398.53,98.908,399.582,97.502,400.517,96.094z"/>
			<path fill="#333333" d="M422.089,112.276c2.957-0.155,5.875-0.47,8.756-0.938c-1.558-2.893-3.115-5.511-4.67-7.856
				c-0.391-0.624-0.37-1.093,0.058-1.406c0.427-0.313,0.876-0.235,1.344,0.234c2.411,3.752,4.629,7.779,6.653,12.077
				c0.234,0.546,0.154,0.956-0.233,1.231c-0.392,0.272-0.741,0.214-1.05-0.176c-0.624-1.017-1.092-1.838-1.401-2.463
				c-7.472,0.86-14.399,1.328-20.779,1.407c-0.779-0.079-1.284-0.371-1.519-0.88c-0.232-0.508-0.04-1.113,0.585-1.816
				c1.478-1.954,3.093-4.104,4.845-6.45c1.751-2.345,3.093-4.338,4.028-5.979h-9.572c-0.469,0-0.702-0.253-0.702-0.764
				c0-0.506,0.233-0.8,0.702-0.879h24.746c0.467,0.079,0.7,0.373,0.7,0.879c0,0.511-0.233,0.764-0.7,0.764h-14.357
				c0.544,0.313,0.584,0.898,0.116,1.759c-1.559,2.503-4.164,6.098-7.821,10.787c-0.392,0.47-0.312,0.743,0.233,0.821
				C415.786,112.55,419.13,112.433,422.089,112.276z M410.883,89.528c0-0.47,0.233-0.743,0.699-0.821h19.963
				c0.543,0.078,0.817,0.352,0.817,0.821c0,0.469-0.274,0.702-0.817,0.702h-19.963C411.116,90.23,410.883,89.997,410.883,89.528z"/>
			<path fill="#333333" d="M457.61,113.801c0.195-0.548,0.644-0.743,1.344-0.588c0.934,0.392,1.885,0.665,2.86,0.822
				c0.973,0.155,1.498-0.275,1.575-1.289V98.908c-0.077-0.545-0.39-0.898-0.935-1.054h-19.494c-0.466,0.155-0.739,0.509-0.818,1.054
				v15.361c-0.076,0.469-0.368,0.704-0.874,0.704c-0.508,0-0.759-0.235-0.759-0.704V98.088c0.077-1.016,0.661-1.601,1.752-1.759
				h5.953c-0.546-1.563-1.014-2.814-1.401-3.753c-0.233-0.235-0.117-0.507,0.351-0.821h-6.303c-0.546,0-0.818-0.251-0.818-0.762
				c0-0.508,0.272-0.801,0.818-0.879h10.973l-0.583-1.407c-0.234-0.545-0.08-0.938,0.465-1.173c0.544-0.235,0.973-0.077,1.285,0.469
				l0.816,2.111h11.207c0.468,0.078,0.7,0.371,0.7,0.879c0,0.511-0.232,0.762-0.7,0.762h-5.954c0.234,0.159,0.352,0.353,0.352,0.586
				c-0.313,0.862-0.976,2.19-1.985,3.988h5.837c1.011,0.158,1.594,0.743,1.751,1.759v15.125c-0.157,1.564-0.933,2.386-2.335,2.464
				c-1.401,0.077-2.802-0.117-4.201-0.586C457.709,114.777,457.416,114.347,457.61,113.801z M443.485,104.538
				c-0.194-0.47,0.061-0.86,0.759-1.174c0.622-0.313,1.44-0.84,2.452-1.582c1.011-0.742,1.985-1.543,2.919-2.404
				c0.623-0.391,1.088-0.37,1.401,0.059c0.31,0.43,0.271,0.88-0.118,1.35c-0.779,0.702-1.691,1.445-2.742,2.227
				c-1.051,0.782-2.122,1.407-3.21,1.876C444.167,105.123,443.68,105.007,443.485,104.538z M458.02,104.538
				c0.935,0.155,1.477,0.743,1.636,1.758v3.985c-0.159,1.096-0.701,1.723-1.636,1.878h-10.505c-0.468,0-0.878-0.175-1.227-0.528
				c-0.349-0.351-0.525-0.801-0.525-1.35v-3.985c0.157-1.015,0.74-1.603,1.752-1.758h4.669H458.02z M457.087,106.18h-8.756
				c-0.546,0.077-0.857,0.391-0.935,0.938v2.344c0.077,0.549,0.389,0.863,0.935,0.94h8.756c0.622-0.077,0.972-0.392,1.05-0.94
				v-2.228C458.059,106.609,457.709,106.257,457.087,106.18z M457.552,92.341c0.078-0.311,0.273-0.507,0.585-0.586h-10.39
				c0.233-0.076,0.507,0.079,0.816,0.47c0.157,0.392,0.389,0.979,0.702,1.758c0.31,0.783,0.621,1.565,0.934,2.347h5.37
				C456.503,94.687,457.162,93.358,457.552,92.341z M454.869,99.437c0.309-0.429,0.775-0.528,1.4-0.293
				c1.556,1.173,3.346,2.738,5.368,4.69c0.391,0.627,0.391,1.133,0,1.524c-0.39,0.392-0.856,0.313-1.399-0.235
				c-1.792-1.798-3.503-3.283-5.136-4.457C454.634,100.277,454.556,99.866,454.869,99.437z"/>
			<path fill="#333333" d="M497.336,114.68c0,0.509-0.233,0.802-0.699,0.88h-24.515c-0.467-0.078-0.7-0.371-0.7-0.88
				c0-0.51,0.233-0.762,0.7-0.762h8.171V88.589c0-0.546,0.252-0.82,0.759-0.82c0.506,0,0.796,0.274,0.875,0.82v25.329h5.604V88.589
				c0-0.546,0.234-0.82,0.702-0.82c0.466,0,0.738,0.274,0.816,0.82v25.329h7.588C497.103,113.918,497.336,114.17,497.336,114.68z
				 M472.705,93.046c-0.155-0.625,0-1.016,0.468-1.173c0.467-0.155,0.816,0,1.051,0.468c0.701,2.505,1.4,5.201,2.101,8.093
				c0.701,2.892,1.361,5.746,1.984,8.56c0,0.626-0.216,0.996-0.641,1.114c-0.429,0.116-0.722-0.098-0.878-0.646
				C475.39,103.287,474.028,97.814,472.705,93.046z M492.435,109.579c-0.312,0.702-0.701,0.978-1.168,0.822
				c-0.467-0.157-0.584-0.627-0.35-1.408c2.022-5.396,3.617-10.905,4.785-16.533c0.155-0.546,0.448-0.763,0.876-0.646
				c0.427,0.118,0.643,0.411,0.643,0.881C496.052,98.322,494.457,103.951,492.435,109.579z"/>
		</g>
	</g>
</g>
</svg>
