<?xml version="1.0" encoding="utf-8"?>
<!-- Generator: Adobe Illustrator 16.0.0, SVG Export Plug-In . SVG Version: 6.00 Build 0)  -->
<!DOCTYPE svg PUBLIC "-//W3C//DTD SVG 1.1//EN" "http://www.w3.org/Graphics/SVG/1.1/DTD/svg11.dtd">
<svg version="1.1" id="图层_1" xmlns="http://www.w3.org/2000/svg" xmlns:xlink="http://www.w3.org/1999/xlink" x="0px" y="0px"
	 width="502px" height="143.989px" viewBox="0 0 502 143.989" enable-background="new 0 0 502 143.989" xml:space="preserve">
<g>
	<path fill="#0D6EFD" d="M22.195,0.202v15.195H6.319v-0.116C2.733,14.673,0,11.559,0,7.8s2.733-6.873,6.319-7.481V0.202H22.195z
		 M6.319,64.396v0.116C2.733,65.122,0,68.235,0,71.994s2.733,6.873,6.319,7.481v0.116h15.876V64.396H6.319z M6.319,127.286v0.115
		C2.733,128.01,0,131.124,0,134.883s2.733,6.873,6.319,7.482v0.115h15.876v-15.195H6.319z"/>
	<path d="M146.749,143.989c-3.798,0-7.071-2.793-7.685-6.527h-0.113l0-19.656l15.592-15.593v35.249h-0.112
		C153.819,141.196,150.546,143.989,146.749,143.989z M107.934,143.989c-4.299,0-7.796-3.496-7.796-7.795
		c0-0.396,0.033-0.803,0.099-1.217h-0.101v-32.488l15.596,0.005l0,32.487h-0.1c0.065,0.412,0.099,0.818,0.099,1.213
		C115.729,140.493,112.232,143.989,107.934,143.989z M69.118,143.989c-3.798,0-7.071-2.793-7.684-6.527h-0.112v-19.656
		l15.592-15.593v35.249h-0.112C76.188,141.196,72.916,143.989,69.118,143.989z M39.187,143.985c-4.298,0-7.795-3.498-7.795-7.797
		L31.389,0l125.995,0.004c4.298,0,7.796,3.497,7.796,7.796c0,4.298-3.498,7.796-7.796,7.796H46.98l0.002,120.592
		C46.983,140.487,43.485,143.985,39.187,143.985z M141.843,94.468H56.865V31.722l0.058-0.059l15.534-15.534v11.478h77.89v0.063
		c3.894,0.491,6.808,3.784,6.808,7.732v43.672h-0.199l0.141,0.141L141.843,94.468z M72.457,78.876h60.855l8.251-8.251V43.198H72.457
		V78.876z M119.91,68.833H85.509V53.241h34.599v0.024c0.207-0.017,0.41-0.024,0.607-0.024c4.299,0,7.796,3.497,7.796,7.796
		s-3.498,7.796-7.796,7.796c-0.217,0-0.441-0.01-0.669-0.029L119.91,68.833z M490.272,143.985c-0.279,0-0.568-0.02-0.904-0.061
		l-0.031,0.061H373.749v-0.111c-3.732-0.613-6.527-3.887-6.527-7.684l0.001-41.158l15.591-15.591v48.952h99.662v-9.019
		l15.592-15.592l-0.002,32.32c0.001,0.029,0.002,0.057,0.002,0.086C498.067,140.487,494.571,143.985,490.272,143.985z
		 M494.204,75.425c-0.041,0-0.081-0.002-0.121-0.005l-0.094,0.005H360.694V59.833h133.492c0.006,0,0.012,0,0.018,0
		c4.299,0,7.796,3.497,7.796,7.796S498.503,75.425,494.204,75.425z M494.204,28.769H367.222V13.177h126.982
		c4.299,0.001,7.796,3.498,7.796,7.796C502,25.271,498.503,28.769,494.204,28.769z M324.639,143.985
		c-0.019,0-0.036-0.002-0.054-0.002l-0.066,0.002H192.295v-15.592h63.518l0.001-39.915h-47.667v0.932h-0.094
		c0.063,0.406,0.094,0.794,0.094,1.178c0,4.299-3.498,7.796-7.796,7.796c-4.298,0-7.795-3.497-7.795-7.796
		c0-0.384,0.031-0.771,0.094-1.178h-0.094l0-76.233h15.592v11.819h47.666V0.063h15.592v24.934h49.341l1.306,0.187
		c3.546,0.785,6.102,3.96,6.102,7.609s-2.556,6.823-6.102,7.609l-1.306,0.187h-49.341v32.299h49.341l1.306,0.186
		c3.546,0.786,6.102,3.961,6.102,7.61s-2.556,6.823-6.102,7.609l-1.306,0.187h-49.341v39.915h53.313
		c4.263,0.043,7.717,3.523,7.717,7.795C332.435,140.487,328.938,143.985,324.639,143.985z M208.147,72.887h47.667V40.588h-47.666
		L208.147,72.887z"/>
</g>
</svg>
