<?xml version="1.0" encoding="utf-8"?>
<!-- Generator: Adobe Illustrator 16.0.0, SVG Export Plug-In . SVG Version: 6.00 Build 0)  -->
<!DOCTYPE svg PUBLIC "-//W3C//DTD SVG 1.1//EN" "http://www.w3.org/Graphics/SVG/1.1/DTD/svg11.dtd">
<svg version="1.1" id="横版单英" xmlns="http://www.w3.org/2000/svg" xmlns:xlink="http://www.w3.org/1999/xlink" x="0px"
	 y="0px" width="502px" height="128px" viewBox="0 0 502 128" enable-background="new 0 0 502 128" xml:space="preserve">
<linearGradient id="SVGID_1_" gradientUnits="userSpaceOnUse" x1="228.5522" y1="-108.9185" x2="228.5522" y2="-233.2813" gradientTransform="matrix(1 0 0 -1 -169.96 -107.0996)">
	<stop  offset="0.1" style="stop-color:#52E5E7"/>
	<stop  offset="0.9" style="stop-color:#130CB7"/>
</linearGradient>
<path fill="url(#SVGID_1_)" d="M58.592,112.915l56.592-32.672v5.881c0,5.749-4.075,12.808-9.055,15.683l-38.482,22.219
	c-4.98,2.875-13.129,2.875-18.109,0l-38.482-22.219C6.075,98.932,2,91.873,2,86.124v-5.881L58.592,112.915z M106.129,26.005
	L67.646,3.786c-1.77-1.021-3.94-1.672-6.226-1.967v14.709l39.615,22.873L61.421,62.272v16.337l53.763-31.042v-5.881
	C115.184,35.938,111.109,28.881,106.129,26.005z M55.763,78.609L2,47.568v-5.881c0-5.75,4.075-12.807,9.055-15.683L49.537,3.786
	c1.769-1.021,3.94-1.672,6.226-1.967v14.717L16.157,39.41l39.605,22.857L55.763,78.609L55.763,78.609z M61.421,85.154l53.763-31.04
	v6.664L61.421,91.764V85.154z M61.421,98.117l53.763-30.986v6.551l-53.763,31.039V98.117z"/>
<g>
	<path fill="#333333" d="M152.18,19.126v9.498h-9.924v-0.072c-2.24-0.383-3.951-2.328-3.951-4.68c0-2.351,1.711-4.294,3.951-4.676
		v-0.071L152.18,19.126L152.18,19.126z M142.255,59.253v0.072c-2.241,0.38-3.952,2.326-3.952,4.675c0,2.35,1.711,4.299,3.952,4.679
		v0.071h9.924v-9.497H142.255z M142.255,98.563v0.069c-2.241,0.383-3.952,2.327-3.952,4.677c0,2.351,1.711,4.297,3.952,4.679v0.072
		h9.924v-9.497H142.255L142.255,98.563z"/>
	<path fill="#333333" d="M230.034,109.001c-2.374,0-4.419-1.743-4.803-4.074h-0.07V92.636l9.746-9.745v22.036h-0.069
		C234.453,107.258,232.408,109.001,230.034,109.001z M205.771,109.001c-2.688,0-4.873-2.186-4.873-4.871
		c0-0.244,0.021-0.504,0.063-0.762h-0.063V83.063l9.749,0.004v20.305h-0.064c0.043,0.258,0.061,0.512,0.061,0.758
		C210.644,106.815,208.459,109.001,205.771,109.001z M181.508,109.001c-2.374,0-4.419-1.743-4.802-4.074h-0.069V92.636l9.746-9.745
		v22.036h-0.069C185.929,107.258,183.882,109.001,181.508,109.001z M162.8,109.001c-2.688,0-4.872-2.189-4.872-4.873l-0.003-85.126
		h78.757c2.688,0.003,4.872,2.186,4.872,4.872c0,2.688-2.186,4.875-4.872,4.875h-69.01l0.001,75.38
		C167.674,106.812,165.486,109.001,162.8,109.001z M226.969,78.048H173.85V38.829l0.035-0.038l9.71-9.71v7.175h48.689v0.039
		c2.434,0.307,4.254,2.365,4.254,4.833v27.299h-0.125l0.089,0.087L226.969,78.048z M183.595,68.303h38.041l5.156-5.157V46.002
		h-43.197V68.303z M213.26,62.024h-21.505v-9.745h21.628v0.017c0.13-0.011,0.254-0.017,0.379-0.017c2.689,0,4.872,2.187,4.872,4.874
		c0,2.687-2.183,4.872-4.872,4.872c-0.135,0-0.274-0.007-0.419-0.018L213.26,62.024z M444.764,109.001
		c-0.176,0-0.354-0.012-0.564-0.037l-0.02,0.037h-72.253v-0.07c-2.335-0.384-4.08-2.43-4.08-4.801V78.4l9.746-9.745v30.601h62.296
		v-5.641l9.749-9.747l-0.004,20.204c0,0.018,0.004,0.036,0.004,0.056C449.638,106.812,447.448,109.001,444.764,109.001z
		 M447.221,66.145c-0.026,0-0.052,0-0.075-0.002l-0.061,0.002h-83.319v-9.746h83.444c0.002,0,0.01,0,0.012,0
		c2.686,0,4.872,2.187,4.872,4.875C452.094,63.957,449.906,66.145,447.221,66.145z M447.221,36.98h-79.372v-9.744h79.373
		c2.686,0,4.872,2.184,4.872,4.871C452.094,34.794,449.906,36.98,447.221,36.98z M341.229,109.001c-0.013,0-0.021,0-0.033,0h-0.045
		h-82.647v-9.745h39.702v-24.95h-29.795v0.581h-0.059c0.039,0.253,0.059,0.497,0.059,0.735c0,2.688-2.186,4.874-4.872,4.874
		c-2.688,0-4.873-2.187-4.873-4.874c0-0.238,0.019-0.482,0.058-0.735h-0.058v-47.65h9.747v7.386h29.795V19.04h9.746v15.583h30.841
		l0.816,0.118c2.215,0.491,3.815,2.475,3.815,4.759c0,2.278-1.601,4.263-3.815,4.753l-0.816,0.118h-30.841v20.19h30.841l0.816,0.114
		c2.215,0.494,3.815,2.478,3.815,4.758c0,2.282-1.601,4.268-3.815,4.757l-0.816,0.118h-30.841v24.95h33.325
		c2.664,0.021,4.823,2.2,4.823,4.872C346.103,106.812,343.917,109.001,341.229,109.001z M268.413,64.559h29.795V44.37h-29.795
		V64.559z"/>
</g>
</svg>
